<mxfile host="app.diagrams.net" agent="Mozilla/5.0 (Windows NT 10.0; Win64; x64) AppleWebKit/537.36 (KHTML, like Gecko) Chrome/135.0.0.0 Safari/537.36 Edg/135.0.0.0" version="26.2.9">
  <diagram name="Page-1" id="k5iXmNB2NO3QPlxbxXlu">
    <mxGraphModel dx="975" dy="575" grid="1" gridSize="10" guides="1" tooltips="1" connect="1" arrows="1" fold="1" page="1" pageScale="1" pageWidth="850" pageHeight="1100" math="0" shadow="0">
      <root>
        <mxCell id="0" />
        <mxCell id="1" parent="0" />
        <mxCell id="UQZVPZunHJjyM63au8Hr-2" value="" style="rounded=0;whiteSpace=wrap;html=1;" vertex="1" parent="1">
          <mxGeometry x="240" y="60" width="530" height="390" as="geometry" />
        </mxCell>
        <mxCell id="UQZVPZunHJjyM63au8Hr-3" value="Product Service" style="rounded=1;whiteSpace=wrap;html=1;" vertex="1" parent="1">
          <mxGeometry x="350" y="140" width="110" height="60" as="geometry" />
        </mxCell>
        <mxCell id="UQZVPZunHJjyM63au8Hr-19" value="Async Comunication" style="edgeStyle=orthogonalEdgeStyle;rounded=0;orthogonalLoop=1;jettySize=auto;html=1;entryX=0;entryY=0.5;entryDx=0;entryDy=0;" edge="1" parent="1" source="UQZVPZunHJjyM63au8Hr-4" target="UQZVPZunHJjyM63au8Hr-5">
          <mxGeometry relative="1" as="geometry" />
        </mxCell>
        <mxCell id="UQZVPZunHJjyM63au8Hr-20" value="sync Comunication" style="edgeStyle=orthogonalEdgeStyle;rounded=0;orthogonalLoop=1;jettySize=auto;html=1;entryX=0;entryY=0.5;entryDx=0;entryDy=0;" edge="1" parent="1" source="UQZVPZunHJjyM63au8Hr-4" target="UQZVPZunHJjyM63au8Hr-6">
          <mxGeometry relative="1" as="geometry" />
        </mxCell>
        <mxCell id="UQZVPZunHJjyM63au8Hr-4" value="Order Service" style="rounded=1;whiteSpace=wrap;html=1;" vertex="1" parent="1">
          <mxGeometry x="414.09000000000003" y="242.5" width="120" height="60" as="geometry" />
        </mxCell>
        <mxCell id="UQZVPZunHJjyM63au8Hr-5" value="Notification Service" style="rounded=1;whiteSpace=wrap;html=1;" vertex="1" parent="1">
          <mxGeometry x="630" y="105" width="120" height="60" as="geometry" />
        </mxCell>
        <mxCell id="UQZVPZunHJjyM63au8Hr-14" style="edgeStyle=orthogonalEdgeStyle;rounded=0;orthogonalLoop=1;jettySize=auto;html=1;" edge="1" parent="1" source="UQZVPZunHJjyM63au8Hr-9" target="UQZVPZunHJjyM63au8Hr-3">
          <mxGeometry relative="1" as="geometry" />
        </mxCell>
        <mxCell id="UQZVPZunHJjyM63au8Hr-15" style="edgeStyle=orthogonalEdgeStyle;rounded=0;orthogonalLoop=1;jettySize=auto;html=1;" edge="1" parent="1" source="UQZVPZunHJjyM63au8Hr-9" target="UQZVPZunHJjyM63au8Hr-4">
          <mxGeometry relative="1" as="geometry" />
        </mxCell>
        <mxCell id="UQZVPZunHJjyM63au8Hr-25" value="" style="swimlane;startSize=0;" vertex="1" parent="1">
          <mxGeometry x="80" y="25" width="705" height="495" as="geometry">
            <mxRectangle x="80" y="25" width="50" height="40" as="alternateBounds" />
          </mxGeometry>
        </mxCell>
        <mxCell id="UQZVPZunHJjyM63au8Hr-22" value="" style="shape=image;verticalLabelPosition=bottom;labelBackgroundColor=default;verticalAlign=top;aspect=fixed;imageAspect=0;editableCssRules=.*;image=data:image/svg+xml,PHN2ZyB4bWxuczp4bGluaz0iaHR0cDovL3d3dy53My5vcmcvMTk5OS94bGluayIgeG1sbnM9Imh0dHA6Ly93d3cudzMub3JnLzIwMDAvc3ZnIiBoZWlnaHQ9IjY0LjAxMjg1NTUyOTc4NTE2IiB3aWR0aD0iNTguOTM5NTE3OTc0ODUzNTE2IiB4bWw6c3BhY2U9InByZXNlcnZlIiB2aWV3Qm94PSIyLjUzMzA2NTMxOTA2MTI3OTMgLTAuMDEyODUyMTI0ODY5ODIzNDU2IDU4LjkzOTUxNzk3NDg1MzUxNiA2NC4wMTI4NTU1Mjk3ODUxNiIgeT0iMHB4IiB4PSIwcHgiIGlkPSJMYXllcl8xIiB2ZXJzaW9uPSIxLjEiPjxtZXRhZGF0YSBpZD0ibWV0YWRhdGE1NiI+aW1hZ2Uvc3ZnK3htbDwvbWV0YWRhdGE+PGRlZnMgaWQ9ImRlZnM1NCI+JiN4YTsJJiN4YTsmI3hhOwkJPGRlZnMgaWQ9ImRlZnM1Ij4mI3hhOwkJCTxyZWN0IGhlaWdodD0iNTYzNi4yMDAyIiB3aWR0aD0iNDM1NS4yMDAyIiB5PSItMTQxMi4yIiB4PSItODQ5LjcwMDAxIiBpZD0iU1ZHSURfMV8iLz4mI3hhOwkJPC9kZWZzPiYjeGE7CQk8Y2xpcFBhdGggaWQ9IlNWR0lEXzJfIj4mI3hhOwkJCTx1c2UgaGVpZ2h0PSIxMDAlIiB3aWR0aD0iMTAwJSIgeT0iMCIgeD0iMCIgaWQ9InVzZTciIHN0eWxlPSJvdmVyZmxvdzp2aXNpYmxlIiB4bGluazpocmVmPSIjU1ZHSURfMV8iLz4mI3hhOwkJPC9jbGlwUGF0aD4mI3hhOwkJJiN4YTsJCSYjeGE7CSYjeGE7CQkJPGRlZnMgaWQ9ImRlZnMzMyI+JiN4YTsJCQkJPHBhdGggaWQ9IlNWR0lEXzVfIiBkPSJtIDEyMjkuNiwzMjguNiBjIDAsMCAtMC43LDIuOSAtMS42LDcuOCAtOC4zLDIuNCAtMTYuNiw0LjcgLTI0LjksNy40IC0xMS41LDMuNSAtMjIuOCw3LjcgLTM0LjMsMTEuOCAtMTEuMyw0LjQgLTIyLjgsOC44IC0zNCwxMy44IC0yMi42LDkuNyAtNDUsMjAuNiAtNjYuOSwzMi45IC0yMS4yLDExLjkgLTQyLjEsMjUgLTYyLjQsMzkuMiAtMi45LC0xLjQgLTUuMiwtMi40IC01LjIsLTIuNCAtMjA3LjMsLTc5LjIgLTM5MS40LDE2LjEgLTM5MS40LDE2LjEgLTE2LjgsMjIwLjUgODIuOCwzNTkuNSAxMDIuNSwzODQuNyAtNC45LDEzLjYgLTkuNSwyNy40IC0xMy43LDQxLjMgLTE1LjMsNTAgLTI2LjgsMTAxLjMgLTMzLjksMTU0LjMgLTEsNy42IC0xLjksMTUuMyAtMi44LDIzIC0xOTEuNSw5NC42IC0yNDguMywyODguNSAtMjQ4LjMsMjg4LjUgMTU5LjksMTgzLjkgMzQ2LjMsMTk1LjMgMzQ2LjMsMTk1LjMgMC4yLC0wLjEgMC4zLC0wLjMgMC41LC0wLjQgMjMuNyw0Mi4zIDUxLjEsODIuNiA4MiwxMjAuMSAxMi45LDE1LjcgMjYuNSwzMC45IDQwLjYsNDUuNiAtNTguMywxNjYuNyA4LjIsMzA1LjQgOC4yLDMwNS40IDE3OCw2LjcgMjk0LjksLTc3LjkgMzE5LjUsLTk3LjQgMTcuNyw2IDM1LjcsMTEuMyA1My44LDE2IDU0LjcsMTQuMSAxMTAuNywyMi40IDE2Ni43LDI0LjggMTQsMC42IDI4LDAuOSA0MS45LDAuOCBoIDYuOCBsIDQuNCwtMC4xIDguOCwtMC4zIDguNywtMC40IDAuMiwwLjMgYyA4My44LDExOS42IDIzMS4zLDEzNi41IDIzMS4zLDEzNi41IDEwNC45LC0xMTAuNiAxMTAuOSwtMjIwLjMgMTEwLjksLTI0NCB2IDAgYyAwLDAgMCwtMC44IDAsLTEuNiAwLC0yIC0wLjEsLTMuMyAtMC4xLC0zLjMgMCwwIDAsMCAwLDAgLTAuMSwtMS43IC0wLjEsLTMuMyAtMC4zLC01LjEgMjIsLTE1LjQgNDMsLTMyIDYyLjksLTQ5LjggNDIsLTM4IDc4LjcsLTgxLjIgMTA5LjEsLTEyNy45IDIuOSwtNC40IDUuNywtOC44IDguNCwtMTMuMyAxMTguNyw2LjggMjAyLjQsLTczLjUgMjAyLjQsLTczLjUgLTE5LjcsLTEyMy43IC05MC4yLC0xODQgLTEwNC45LC0xOTUuNCB2IDAgYyAwLDAgLTAuNiwtMC41IC0xLjUsLTEuMSAtMC44LC0wLjYgLTEuNCwtMSAtMS40LC0xIDAsMCAwLDAgMCwwIC0wLjcsLTAuNSAtMS42LC0xLjEgLTIuNiwtMS43IDAuNywtNy41IDEuNCwtMTQuOSAxLjgsLTIyLjMgMC45LC0xMy4zIDEuMiwtMjYuNyAxLjMsLTM5LjkgbCAtMC4xLC05LjkgLTAuMSwtNSB2IC0yLjUgYyAwLC0zLjQgLTAuMSwtMi4xIC0wLjEsLTMuNCBsIC0wLjQsLTguMyAtMC42LC0xMS4yIGMgLTAuMiwtMy45IC0wLjUsLTcuMiAtMC44LC0xMC43IC0wLjMsLTMuNCAtMC42LC02LjkgLTEsLTEwLjMgbCAtMS4yLC0xMC4zIC0xLjQsLTEwLjIgYyAtMiwtMTMuNiAtNC42LC0yNy4xIC03LjcsLTQwLjQgLTEyLjQsLTUzLjMgLTMzLjIsLTEwMy45IC02MC43LC0xNDkuNCAtMjcuNSwtNDUuNSAtNjEuNywtODUuOCAtMTAwLjIsLTExOS43IC0zOC41LC0zNCAtODEuNywtNjEuMyAtMTI3LC04MS43IC00NS4zLC0yMC40IC05Mi45LC0zMy41IC0xNDAuMywtMzkuNSAtMjMuNywtMy4xIC00Ny4zLC00LjMgLTcwLjcsLTQgbCAtOC43LDAuMiAtMi4yLDAuMSBjIC0wLjYsMCAtMy4zLDAuMSAtMywwLjEgbCAtMy42LDAuMiAtOC43LDAuNiBjIC0zLjMsMC4yIC02LjcsMC41IC05LjYsMC44IC0xMiwxLjIgLTIzLjksMi44IC0zNS43LDUgLTQ3LDguOCAtOTEuNCwyNS44IC0xMzAuNSw0OS4yIC0zOS4xLDIzLjQgLTczLjEsNTIuNyAtMTAwLjgsODUuOSAtMjcuNiwzMy4xIC00OS4xLDY5LjggLTYzLjksMTA3LjggLTE0LjgsMzggLTIzLjEsNzcuMiAtMjUuNCwxMTUuMyAtMC42LDkuNSAtMC44LDE5IC0wLjYsMjguNCAwLDIuMyAwLjEsNC43IDAuMiw3IGwgMC4zLDcuNiBjIDAuMyw0LjYgMC43LDkuMSAxLjEsMTMuNiAxLjksMTkuMyA1LjQsMzcuOCAxMC42LDU1LjcgMTAuMywzNS43IDI2LjksNjggNDcuMyw5NS40IDIwLjQsMjcuNSA0NC44LDUwLjIgNzAuNyw2Ny45IDI1LjksMTcuNyA1My42LDMwLjQgODEsMzguNSAyNy41LDguMSA1NC44LDExLjYgODAuNSwxMS41IDMuMiwwIDYuNCwtMC4xIDkuNiwtMC4yIDEuNywwIDMuNCwtMC4yIDUuMSwtMC4yIDEuNywtMC4xIDMuNCwtMC4yIDUuMSwtMC4zIDIuNywtMC4zIDUuNSwtMC41IDguMiwtMC44IDAuNiwwIDEuNSwtMC4yIDIuMywtMC4zIGwgMi41LC0wLjMgYyAxLjcsLTAuMiAzLjMsLTAuNSA1LC0wLjcgMy40LC0wLjQgNi4zLC0xLjEgOS4zLC0xLjYgMywtMC42IDYsLTEuMiA5LC0yIDUuOSwtMS4zIDExLjYsLTMuMSAxNy4zLC00LjggMTEuMiwtMy43IDIxLjcsLTguMiAzMS41LC0xMy4yIDkuOCwtNSAxOC44LC0xMC43IDI3LjIsLTE2LjYgMi40LC0xLjcgNC43LC0zLjUgNywtNS4zIDksLTcgMTAuNCwtMjAuMiAzLjIsLTI5IC02LjMsLTcuNyAtMTcuMSwtOS43IC0yNS43LC00LjkgLTIuMSwxLjIgLTQuMywyLjMgLTYuNSwzLjQgLTcuNSwzLjYgLTE1LjMsNyAtMjMuNiw5LjcgLTguMywyLjYgLTE2LjksNC44IC0yNS45LDYuNCAtNC41LDAuNiAtOSwxLjMgLTEzLjYsMS43IC0yLjMsMC4zIC00LjYsMC40IC03LDAuNCAtMi4zLDAuMSAtNC44LDAuMyAtNi45LDAuMiAtMi4yLDAgLTQuNCwtMC4xIC02LjcsLTAuMSAtMi44LC0wLjEgLTUuNiwtMC4zIC04LjQsLTAuNCAwLDAgLTEuNCwwIC0wLjMsLTAuMSBsIC0wLjksLTAuMSAtMS45LC0wLjIgYyAtMS4zLC0wLjEgLTIuNSwtMC4yIC0zLjgsLTAuNCAtMi41LC0wLjMgLTUsLTAuNiAtNy41LC0xIC0yMC4xLC0yLjggLTQwLjUsLTguNyAtNjAuMSwtMTcuNiAtMTkuNywtOC45IC0zOC41LC0yMS4xIC01NS41LC0zNi40IC0xNywtMTUuMiAtMzEuOCwtMzMuNiAtNDMuNCwtNTQuNCAtMTEuNiwtMjAuNyAtMTkuNywtNDMuOCAtMjMuNSwtNjggLTEuOSwtMTIuMSAtMi43LC0yNC42IC0yLjQsLTM2LjggMC4yLC0zLjQgMC4zLC02LjcgMC41LC0xMC4xIDAsMC45IDAuMSwtMC41IDAuMSwtMC42IGwgMC4xLC0xLjIgMC4yLC0yLjUgYyAwLjEsLTEuNyAwLjMsLTMuMyAwLjUsLTUgMC43LC02LjYgMS43LC0xMy4zIDIuOSwtMTkuOCA5LjMsLTUyLjcgMzUuNywtMTA0LjEgNzYuNSwtMTQzLjIgMTAuMiwtOS43IDIxLjIsLTE4LjggMzIuOSwtMjYuOCAxMS43LC04IDI0LjIsLTE1LjIgMzcuMiwtMjEuMiAxMywtNiAyNi42LC0xMC45IDQwLjUsLTE0LjcgMTMuOSwtMy43IDI4LjIsLTYuMiA0Mi43LC03LjUgNy4yLC0wLjYgMTQuNSwtMC45IDIxLjgsLTAuOSAxLjksMCAzLjQsMC4xIDQuOSwwLjEgbCA1LjksMC4yIDMuNywwLjEgYyAxLjUsMCAwLDAgMC43LDAuMSBsIDEuNSwwLjEgNS45LDAuNCBjIDE1LjcsMS4zIDMxLjQsMy41IDQ2LjgsNyAzMC45LDYuOSA2MC45LDE4LjIgODguOSwzMy43IDU2LDMxIDEwMy43LDc5LjUgMTMzLDEzOCAxNC44LDI5LjEgMjUsNjAuNSAzMC4yLDkyLjkgMS4yLDguMSAyLjIsMTYuMyAyLjksMjQuNSBsIDAuNSw2LjIgMC4zLDYuMiBjIDAuMSwyLjEgMC4xLDQuMSAwLjIsNi4yIDAsMiAwLjEsNC4zIDAuMSw1LjggdiA1LjMgbCAtMC4xLDYgYyAtMC4yLDQgLTAuNSwxMC41IC0wLjcsMTQuNSAtMC43LDguOSAtMS40LDE3LjkgLTIuNiwyNi44IC0xLjEsOC44IC0yLjYsMTcuNiAtNC4yLDI2LjQgLTEuOCw4LjcgLTMuNiwxNy40IC01LjksMjYgLTQuMywxNy4zIC05LjksMzQuMiAtMTYuNCw1MC44IC0xMy4xLDMzLjIgLTMwLjYsNjQuNyAtNTEuNyw5My44IC00Mi4zLDU4LjEgLTEwMCwxMDUuNiAtMTY1LjYsMTM1LjQgLTMyLjgsMTQuOCAtNjcuNCwyNS43IC0xMDMsMzEuNiAtMTcuOCwzIC0zNS44LDQuOCAtNTMuOCw1LjQgbCAtMy4zLDAuMSBoIC0yLjkgbCAtNS44LDAuMSBoIC04LjkgLTQuNCBjIDIuNSwwIC0wLjQsMCAtMC4zLC0wLjEgbCAtMS44LC0wLjEgYyAtOS43LC0wLjIgLTE5LjMsLTAuNyAtMjguOSwtMS40IC0zOC41LC0yLjkgLTc2LjYsLTkuNyAtMTEzLjUsLTIwLjUgLTM2LjksLTEwLjcgLTcyLjcsLTI1IC0xMDYuNiwtNDMgLTY3LjcsLTM2LjIgLTEyOC4yLC04NS44IC0xNzUuNiwtMTQ1LjYgLTIzLjgsLTI5LjggLTQ0LjYsLTYxLjggLTYxLjgsLTk1LjUgLTE3LjIsLTMzLjcgLTMwLjcsLTY5IC00MC43LC0xMDUuMSAtOS45LC0zNi4xIC0xNi4xLC03My4xIC0xOC41LC0xMTAuMyBsIC0wLjQsLTcgLTAuMSwtMS43IHYgLTEuNSBsIC0wLjEsLTMuMSAtMC4yLC02LjEgLTAuMSwtMS41IHYgLTIuMSAtNC4zIGwgLTAuMSwtOC43IHYgLTEuNyBjIDAsMC4zIDAsMC4zIDAsLTAuNiB2IC0zLjQgYyAwLC00LjUgMC4yLC05LjEgMC4zLC0xMy42IDAuNywtMTguNCAyLjIsLTM3LjMgNC42LC01Ni4yIDIuNCwtMTguOSA1LjUsLTM3LjkgOS40LC01Ni44IDMuOSwtMTguOCA4LjUsLTM3LjUgMTMuNywtNTUuOCAxMC41LC0zNi43IDIzLjYsLTcyLjMgMzkuMSwtMTA1LjkgMzEuMSwtNjcuMyA3MS45LC0xMjYuNiAxMjAuOSwtMTc0LjQgMTIuMiwtMTIgMjQuOSwtMjMuMyAzOC4xLC0zMy45IDEzLjIsLTEwLjYgMjYuOSwtMjAuNCA0MSwtMjkuNiAxNCwtOS4zIDI4LjUsLTE3LjcgNDMuNCwtMjUuNSA3LjQsLTQgMTUsLTcuNSAyMi42LC0xMS4yIDMuOCwtMS43IDcuNywtMy40IDExLjUsLTUuMSAzLjgsLTEuNyA3LjcsLTMuNCAxMS42LC00LjkgMTUuNSwtNi42IDMxLjUsLTEyLjEgNDcuNSwtMTcuMyA0LjEsLTEuMiA4LjEsLTIuNSAxMi4xLC0zLjcgNCwtMS4zIDguMiwtMi4yIDEyLjIsLTMuNCA4LjEsLTIuMyAxNi40LC00LjIgMjQuNiwtNi4zIDQuMSwtMS4xIDguMywtMS44IDEyLjQsLTIuNyA0LjIsLTAuOSA4LjMsLTEuOCAxMi41LC0yLjYgNC4yLC0wLjggOC40LC0xLjUgMTIuNSwtMi4zIGwgNi4zLC0xLjEgNi4zLC0xIGMgNC4yLC0wLjYgOC40LC0xLjMgMTIuNiwtMS45IDQuNywtMC44IDkuNSwtMS4yIDE0LjIsLTEuOSAzLjksLTAuNSAxMC4yLC0xLjIgMTQuMSwtMS43IDMsLTAuMyA1LjksLTAuNiA4LjksLTAuOSBsIDUuOSwtMC42IDMsLTAuMyAzLjUsLTAuMiBjIDQuOCwtMC4zIDkuNSwtMC42IDE0LjMsLTAuOSBsIDcuMSwtMC41IGMgMCwwIDIuNiwtMC4xIDAuMywtMC4xIGwgMS41LC0wLjEgMywtMC4xIGMgNC4xLC0wLjIgOC4xLC0wLjQgMTIuMiwtMC42IDE2LjIsLTAuNSAzMi4zLC0wLjUgNDguMiwwIDMxLjksMS4zIDYzLjIsNC44IDkzLjYsMTAuNCA2MC45LDExLjMgMTE4LjIsMzAuOSAxNzAsNTYuNSA1MS45LDI1LjQgOTguNCw1Ni42IDEzOC44LDkwLjUgMi41LDIuMSA1LDQuMyA3LjUsNi40IDIuNSwyLjIgNC45LDQuMyA3LjMsNi41IDQuOSw0LjMgOS42LDguOCAxNC4zLDEzLjEgNC43LDQuNCA5LjIsOC45IDEzLjgsMTMuMyA0LjQsNC41IDguOSw4LjkgMTMuMiwxMy41IDE3LjEsMTguMSAzMywzNi41IDQ3LjMsNTUgMjguNywzNi45IDUxLjYsNzQuMSA2OS45LDEwOS4zIDEuMiwyLjIgMi4zLDQuNCAzLjQsNi42IDEuMSwyLjIgMi4yLDQuNCAzLjIsNi42IDIuMSw0LjMgNC4zLDguNiA2LjIsMTIuOSAyLDQuMyA0LDguNSA1LjksMTIuNyAxLjgsNC4yIDMuNiw4LjQgNS40LDEyLjQgNi44LDE2LjUgMTMsMzIuMSAxOC4xLDQ3IDguNCwyMy45IDE0LjUsNDUuNSAxOS4zLDY0LjIgMS45LDcuNSA5LDEyLjUgMTYuNywxMS44IDgsLTAuNyAxNC4xLC03LjMgMTQuMywtMTUuMyAwLjQsLTIwLjEgLTAuMSwtNDMuOCAtMi40LC03MC44IC0zLC0zMy40IC04LjcsLTcyLjEgLTIwLC0xMTQuNiAtMTEuMSwtNDIuNSAtMjcuNiwtODkgLTUxLjYsLTEzNy4zIC0yNC4xLC00OC4yIC01NS41LC05OC40IC05Ni4zLC0xNDYuOSAtMTUuOSwtMTkgLTMzLjMsLTM3LjggLTUyLjEsLTU2LjEgMjgsLTExMS40IC0zNC4xLC0yMDggLTM0LjEsLTIwOCAtMTA3LjIsLTYuNyAtMTc1LjQsMzMuMyAtMjAwLjcsNTEuNiAtNC4yLC0xLjggLTguNSwtMy42IC0xMi44LC01LjQgLTE4LjMsLTcuNCAtMzcsLTE0LjMgLTU2LjMsLTIwLjQgLTE5LjMsLTYuMSAtMzksLTExLjcgLTU5LjEsLTE2LjQgLTIwLjIsLTQuNyAtNDAuNywtOC43IC02MS42LC0xMS45IC0zLjcsLTAuNSAtNy4zLC0xIC0xMSwtMS42IC00Ni42LC0xNDkuNCAtMTgwLjksLTIxMS45IC0xODAuOSwtMjExLjkgLTE0OS44LDk0LjUgLTE3OC4zLDIyNy40IC0xNzguMywyMjcuNCIvPiYjeGE7CQkJPC9kZWZzPiYjeGE7CQkJPGNsaXBQYXRoIGlkPSJTVkdJRF82XyI+JiN4YTsJCQkJPHVzZSB4bGluazpocmVmPSIjU1ZHSURfNV8iIHN0eWxlPSJvdmVyZmxvdzp2aXNpYmxlIiBpZD0idXNlMzUiIHg9IjAiIHk9IjAiIHdpZHRoPSIxMDAlIiBoZWlnaHQ9IjEwMCUiLz4mI3hhOwkJCTwvY2xpcFBhdGg+JiN4YTsJCQkmI3hhOwkJCQk8bGluZWFyR3JhZGllbnQgaWQ9IlNWR0lEXzdfIiBncmFkaWVudFVuaXRzPSJ1c2VyU3BhY2VPblVzZSIgeDE9Ii04MTkuNzY1MDEiIHkxPSI4MjAxLjcxIiB4Mj0iLTgxMi42NDg2OCIgeTI9IjgyMDEuNzEiIGdyYWRpZW50VHJhbnNmb3JtPSJtYXRyaXgoMCwtMjU1Ljc3NDIsLTI1NS43NzQyLDAsMjA5OTExNS41LC0yMDcxMzMuNTUpIj4mI3hhOwkJCQk8c3RvcCBvZmZzZXQ9IjAiIHN0eWxlPSJzdG9wLWNvbG9yOiNGRkYyMDAiIGlkPSJzdG9wMzgiLz4mI3hhOwkJCQk8c3RvcCBvZmZzZXQ9IjEiIHN0eWxlPSJzdG9wLWNvbG9yOiNGMTVBMjkiIGlkPSJzdG9wNDAiLz4mI3hhOwkJCTwvbGluZWFyR3JhZGllbnQ+JiN4YTsJCQkmI3hhOwkJJiN4YTsJCQk8ZGVmcyBpZD0iZGVmczExIj4mI3hhOwkJCQk8cmVjdCBpZD0iU1ZHSURfM18iIHg9Ii04NDkuNzAwMDEiIHk9Ii0xNDEyLjIiIHdpZHRoPSI0MzU1LjIwMDIiIGhlaWdodD0iNTYzNi4yMDAyIi8+JiN4YTsJCQk8L2RlZnM+JiN4YTsJCQk8Y2xpcFBhdGggaWQ9IlNWR0lEXzRfIj4mI3hhOwkJCQk8dXNlIHhsaW5rOmhyZWY9IiNTVkdJRF8zXyIgc3R5bGU9Im92ZXJmbG93OnZpc2libGUiIGlkPSJ1c2UxMyIgeD0iMCIgeT0iMCIgd2lkdGg9IjEwMCUiIGhlaWdodD0iMTAwJSIvPiYjeGE7CQkJPC9jbGlwUGF0aD4mI3hhOwkJCSYjeGE7CQkJJiN4YTsJCQkmI3hhOwkJCSYjeGE7CQkJJiN4YTsJCQkmI3hhOwkJCSYjeGE7CQk8L2RlZnM+JiN4YTs8c3R5bGUgaWQ9InN0eWxlMiIgdHlwZT0idGV4dC9jc3MiPiYjeGE7CS5zdDB7ZmlsbDojQzU5QTZFO30mI3hhOwkuc3Qxe2ZpbGw6IzNDQjQ0Qjt9JiN4YTsJLnN0MntmaWxsOiM2NzMwOEY7fSYjeGE7CS5zdDN7ZmlsbDojRDFEMUQxO30mI3hhOwkuc3Q0e2ZpbGw6I0VGNUIyODt9JiN4YTsJLnN0NXtzdHJva2U6IzAwMDAwMDtzdHJva2Utd2lkdGg6MTY7c3Ryb2tlLW1pdGVybGltaXQ6MTA7fSYjeGE7CS5zdDZ7ZmlsbDp1cmwoI1RyaWFuZ2xlLTNfMV8pO30mI3hhOwkuc3Q3e2ZpbGw6IzMzMzMzMzt9JiN4YTsJLnN0OHtmaWxsOiNDRjIxMjk7fSYjeGE7CS5zdDl7ZmlsbDojQ0MzODMyO30mI3hhOwkuc3QxMHtmaWxsOiNCQTQ0M0Q7fSYjeGE7CS5zdDExe2ZpbGw6I0JBQzU1Njt9JiN4YTsJLnN0MTJ7ZmlsbDojRjhERjRCO30mI3hhOwkuc3QxM3tmaWxsOiNGNUNGNDc7fSYjeGE7CS5zdDE0e2ZpbGw6I0E5Qjc1RDt9JiN4YTsJLnN0MTV7ZmlsbDojRERCRTVCO30mI3hhOwkuc3QxNntmaWxsOiM2RkJFQ0I7fSYjeGE7CS5zdDE3e2ZpbGw6Izc5QzBCRjt9JiN4YTsJLnN0MTh7ZmlsbDojNzdDM0QyO30mI3hhOwkuc3QxOXtmaWxsOiM1Q0I4QkI7fSYjeGE7CS5zdDIwe2ZpbGw6IzUyOUZCNTt9JiN4YTsJLnN0MjF7ZmlsbDojQkEzRDM2O30mI3hhOwkuc3QyMntmaWxsOiM5RDM2MzQ7fSYjeGE7CS5zdDIze2ZpbGw6I0QzM0UzNTt9JiN4YTsJLnN0MjR7ZmlsbDojODY5QjYzO30mI3hhOwkuc3QyNXtmaWxsOiNCRUM1NEY7fSYjeGE7CS5zdDI2e2ZpbGw6IzlFQUQ1OTt9JiN4YTsJLnN0Mjd7ZmlsbDpub25lO30mI3hhOwkuc3QyOHtmaWxsOiM0M0FFMkE7fSYjeGE7CS5zdDI5e2ZpbGw6IzAwOURERDt9JiN4YTsJLnN0MzB7ZmlsbDojMDBBMjk3O30mI3hhOwkuc3QzMXtmaWxsOiMwMDcyQ0M7fSYjeGE7CS5zdDMye2ZpbGw6IzgyQkIwMDt9JiN4YTsJLnN0MzN7ZmlsbDojMTAwNjlEO30mI3hhOwkuc3QzNHtmaWxsOiMzMzNGNDg7fSYjeGE7CS5zdDM1e2NsaXAtcGF0aDp1cmwoI1NWR0lEXzJfKTt9JiN4YTsJLnN0MzZ7Y2xpcC1wYXRoOnVybCgjU1ZHSURfNF8pO2ZpbGw6IzQxNDA0Mjt9JiN4YTsJLnN0Mzd7Y2xpcC1wYXRoOnVybCgjU1ZHSURfNl8pO2ZpbGw6dXJsKCNTVkdJRF83Xyk7fSYjeGE7PC9zdHlsZT4mI3hhOzxnIHRyYW5zZm9ybT0ibWF0cml4KDAuODE1OTEyNDQsMCwwLDAuODE1OTEyNDQsLTU3LjgzMjM1NywxMjkuNzE4NTMpIiBpZD0iZzkzNyI+PHJlY3Qgc3R5bGU9ImZpbGw6dXJsKCNTVkdJRF83XykiIGlkPSJyZWN0NDMiIGNsaXAtcGF0aD0idXJsKCNTVkdJRF82XykiIGhlaWdodD0iMTk5Mi4zIiB3aWR0aD0iMTgzNC40IiBjbGFzcz0ic3QzNyIgeT0iMTAwLjgiIHg9IjQxMi43MDAwMSIgdHJhbnNmb3JtPSJtYXRyaXgoMC4wMzkzNzkzOCwwLDAsMC4wMzkzNzkzOCw1Ny43MzMyOTksLTE2Mi45NzEwNCkiLz48L2c+JiN4YTs8L3N2Zz4=;" vertex="1" parent="UQZVPZunHJjyM63au8Hr-25">
          <mxGeometry x="280" y="435" width="40" height="43.39" as="geometry" />
        </mxCell>
        <mxCell id="UQZVPZunHJjyM63au8Hr-31" style="edgeStyle=orthogonalEdgeStyle;rounded=0;orthogonalLoop=1;jettySize=auto;html=1;exitX=1;exitY=0.5;exitDx=0;exitDy=0;entryX=0.75;entryY=1;entryDx=0;entryDy=0;" edge="1" parent="UQZVPZunHJjyM63au8Hr-25" source="UQZVPZunHJjyM63au8Hr-22" target="UQZVPZunHJjyM63au8Hr-22">
          <mxGeometry relative="1" as="geometry" />
        </mxCell>
        <mxCell id="UQZVPZunHJjyM63au8Hr-6" value="Inventory Service" style="rounded=1;whiteSpace=wrap;html=1;" vertex="1" parent="UQZVPZunHJjyM63au8Hr-25">
          <mxGeometry x="560" y="315" width="120" height="60" as="geometry" />
        </mxCell>
        <mxCell id="UQZVPZunHJjyM63au8Hr-9" value="API Gateway" style="ellipse;whiteSpace=wrap;html=1;" vertex="1" parent="UQZVPZunHJjyM63au8Hr-25">
          <mxGeometry x="40" y="175" width="100" height="80" as="geometry" />
        </mxCell>
        <mxCell id="UQZVPZunHJjyM63au8Hr-11" value="Auth Server" style="shape=trapezoid;perimeter=trapezoidPerimeter;whiteSpace=wrap;html=1;fixedSize=1;" vertex="1" parent="UQZVPZunHJjyM63au8Hr-25">
          <mxGeometry x="40" y="305" width="110" height="60" as="geometry" />
        </mxCell>
        <mxCell id="UQZVPZunHJjyM63au8Hr-21" style="edgeStyle=orthogonalEdgeStyle;rounded=0;orthogonalLoop=1;jettySize=auto;html=1;exitX=0.5;exitY=1;exitDx=0;exitDy=0;entryX=0.5;entryY=0;entryDx=0;entryDy=0;" edge="1" parent="UQZVPZunHJjyM63au8Hr-25" source="UQZVPZunHJjyM63au8Hr-9" target="UQZVPZunHJjyM63au8Hr-11">
          <mxGeometry relative="1" as="geometry" />
        </mxCell>
        <mxCell id="UQZVPZunHJjyM63au8Hr-28" value="" style="shape=image;verticalLabelPosition=bottom;labelBackgroundColor=default;verticalAlign=top;aspect=fixed;imageAspect=0;editableCssRules=.*;image=data:image/svg+xml,PHN2ZyB4bWxucz0iaHR0cDovL3d3dy53My5vcmcvMjAwMC9zdmciIHZpZXdCb3g9IjAgMzAuNzU5NjAzNTAwMzY2MjEgMTI4IDY2LjQ3OTM5MzAwNTM3MTEiIHdpZHRoPSIxMjgiIGhlaWdodD0iNjYuNDc5MzkzMDA1MzcxMSI+PHBhdGggZD0iTTAgOTEuMzEzaDQuMjQyVjc0LjU2Nmw2LjU2NiAxNC41OThjLjc3MyAxLjc3IDEuODMyIDIuMzkxIDMuOTE0IDIuMzkxczMuMDk4LS42MjEgMy44NzEtMi4zOTFsNi41NjYtMTQuNTk4djE2Ljc0Nmg0LjI0MlY3NC41OTRjMC0xLjYzMy0uNjUyLTIuNDIyLTItMi44MjgtMy4yMjMtMS4wMDQtNS4zODMtLjEzNy02LjM2MyAyLjAzOWwtNi40NDEgMTQuNDEtNi4yMzgtMTQuNDFjLS45MzctMi4xNzYtMy4xNC0zLjA0My02LjM1OS0yLjAzOS0xLjM0OC40MDYtMiAxLjE5NS0yIDIuODI4ek0zMi45MyA3Ny42OGg0LjIzOHY5LjIyN2MtLjAzOS41LjE2IDEuNjc2IDIuNDg0IDEuNzE1aDkuMjIzVjc3LjYzM2g0LjI1Yy4wMiAwLS4wMDggMTQuOTg0LS4wMDggMTUuMDQ3LjAyMyAzLjY5NS00LjU4MiA0LjQ5Ni02LjcwNyA0LjU1OUgzMy4wMnYtMi44NTJsMTMuNDE0LS4wMDRjMi43My0uMjg1IDIuNDA2LTEuNjQ1IDIuNDA2LTIuMDk4di0xLjExM2gtOS4wMTJjLTQuMTk1LS4wMzktNi44NjMtMS44NzEtNi44OTgtMy45NzctLjAwNC0uMTkxLjA5LTkuNDIyIDAtOS41MTZ6bTAgMCIgZmlsbD0iIzAwNjE4QSIvPjxwYXRoIGQ9Ik01Ni4zOTEgOTEuMzEzaDEyLjE5NWMxLjQyNiAwIDIuODEzLS4zMDEgMy45MTQtLjgxNiAxLjgzNi0uODQgMi43My0xLjk4NCAyLjczLTMuNDh2LTMuMDk4YzAtMS4yMjMtMS4wMTYtMi4zNjctMy4wMTYtMy4xMjUtMS4wNTktLjQxLTIuMzY3LS42MjUtMy42MjktLjYyNWgtNS4xNDFjLTEuNzExIDAtMi41MjctLjUxNi0yLjczLTEuNjU2LS4wMzktLjEzNy0uMDM5LS4yNDYtLjAzOS0uMzgzVjc2LjJjMC0uMTA5IDAtLjIxOS4wMzktLjM1NS4yMDMtLjg2Ny42NTItMS4xMTMgMi4xNi0xLjI1bC40MS0uMDI3aDEyLjEwOXYtMi44MjRINjMuNDg4Yy0xLjcxMSAwLTIuNjA5LjEwOS0zLjQyNi4zNTItMi41MjcuNzg5LTMuNjI5IDIuMDM5LTMuNjI5IDQuMjE1djIuNDczYzAgMS45MDIgMi4xNiAzLjUzNSA1Ljc4OSAzLjkxNGwxLjIyMy4wNTVoNC40MDZjLjE2NCAwIC4zMjQgMCAuNDQ5LjAyNyAxLjM0NC4xMDkgMS45MTQuMzU1IDIuMzI0Ljg0NC4yMTEuMTk1LjMzMi40NzMuMzI0Ljc1OHYyLjQ3N2MwIC4yOTctLjIwMy42OC0uNjA5IDEuMDA0LS4zNjcuMzI4LS45OC41NDMtMS43OTMuNTk4bC0uNDQ5LjAyN0g1Ni4zOTF6bTQ1LjI5Ny00LjkyMmMwIDIuOTEgMi4xNjQgNC41MzkgNi41MjMgNC44NjdsMS4yMjcuMDU1aDExLjA1MXYtMi44MjhoLTExLjEzM2MtMi40ODggMC0zLjQyNi0uNjI1LTMuNDI2LTIuMTIxVjcxLjczOGgtNC4yMzhWODYuMzl6bS0yMy43NS4xNDhWNzYuNDU3YzAtMi41NTkgMS44MDEtNC4xMTMgNS4zNTUtNC42MDJhNy45NzYgNy45NzYgMCAwIDEgMS4xNDUtLjA4Mmg4LjA0N2MuNDEgMCAuNzc3LjAyNyAxLjE4OC4wODIgMy41NTUuNDg4IDUuMzUyIDIuMDQzIDUuMzUyIDQuNjAydjEwLjA4MmMwIDIuMDc4LS43NjIgMy4xODgtMi41MjMgMy45MTRsNC4xOCAzLjc3aC00LjkyNmwtMy4zNzktMy4wNTEtMy40MDIuMjE1SDg0LjQ0YTkuMjMgOS4yMyAwIDAgMS0yLjQ5Mi0uMzUyYy0yLjY5OS0uNzM0LTQuMDA4LTIuMTUyLTQuMDA4LTQuNDk2em00LjU3OC0uMjQ2YzAgLjEzNy4wMzkuMjczLjA4Mi40MzguMjQ2IDEuMTcyIDEuMzQ4IDEuODI0IDMuMDIzIDEuODI0aDMuODUybC0zLjUzOS0zLjE5NWg0LjkyNmwzLjA4NiAyLjc4OWMuNTctLjMwNS45NDEtLjc2NiAxLjA3NC0xLjM2My4wMzktLjEzNy4wMzktLjI3My4wMzktLjQxdi05LjY2OGMwLS4xMDkgMC0uMjQ2LS4wMzktLjM4My0uMjQ2LTEuMDktMS4zNDgtMS43MTUtMi45ODQtMS43MTVoLTYuNDE0Yy0xLjg3OSAwLTMuMTA1LjgxNi0zLjEwNSAyLjA5OHptMCAwIiBmaWxsPSIjRTQ4RTAwIi8+PHBhdGggZD0iTTEyNC4yMTkgNjcuMDQ3Yy0yLjYwNS0uMDctNC41OTguMTcyLTYuMzAxLjg5MS0uNDg0LjIwMy0xLjI1OC4yMDctMS4zMzYuODEzLjI2Ni4yODEuMzA5LjY5OS41MiAxLjAzOS40MDYuNjYgMS4wOTQgMS41MzkgMS43MDcgMmwyLjA3NCAxLjQ4NGMxLjI3My43NzcgMi42OTkgMS4yMjMgMy45MyAyIC43MjMuNDYxIDEuNDQxIDEuMDM5IDIuMTQ4IDEuNTU5LjM0OC4yNTQuNTgyLjY1NiAxLjAzOS44MTZ2LS4wNzRjLS4yMzgtLjMwNS0uMzAxLS43MjMtLjUyLTEuMDM5bC0uOTY1LS45NjVjLS45NDEtMS4yNS0yLjEzNy0yLjM0OC0zLjQxLTMuMjYyLTEuMDE2LS43MjctMy4yODEtMS43MTEtMy43MDctMi44OTFsLS4wNzQtLjA3NGMuNzE5LS4wNzggMS41NjMtLjM0IDIuMjIzLS41MTYgMS4xMTctLjMwMSAyLjExMy0uMjIzIDMuMjYyLS41MmwxLjU1OS0uNDQ5di0uMjkzYy0uNTgyLS41OTgtLjk5Ni0xLjM4Ny0xLjYzMy0xLjkzLTEuNjU2LTEuNDEtMy40NjktMi44MjQtNS4zMzYtNC4wMDQtMS4wMzUtLjY1Mi0yLjMxMi0xLjA3NC0zLjQxLTEuNjI5LS4zNjctLjE4Ny0xLjAxNi0uMjgxLTEuMjYyLS41OTQtLjU3NC0uNzM0LS44ODctMS42NjQtMS4zMzItMi41MmwtMi42NjgtNS42MzNjLS41NjItMS4yODUtLjkzLTIuNTU1LTEuNjMzLTMuNzA3LTMuMzYzLTUuNTM1LTYuOTg4LTguODc1LTEyLjYwMi0xMi4xNTYtMS4xOTEtLjY5OS0yLjYzMy0uOTczLTQuMTQ4LTEuMzMybC0yLjQ0OS0uMTQ4Yy0uNDk2LS4yMTEtMS4wMTItLjgyLTEuNDgtMS4xMTMtMS44NTktMS4xNzYtNi42MjktMy43My04LjAwOC0uMzcxLS44NjcgMi4xMjEgMS4zMDEgNC4xOTEgMi4wNzggNS4yNjYuNTQzLjc1NCAxLjI0MiAxLjU5OCAxLjYyOSAyLjQ0NS4yNTguNTU1LjMwMSAxLjExMy41MiAxLjcwMy41MzkgMS40NTMgMS4wMDggMy4wMzEgMS43MDcgNC4zNzUuMzUyLjY4LjczOCAxLjM5NSAxLjE4NCAyIC4yNzMuMzcxLjc0Mi41MzkuODE2IDEuMTEzLS40NTcuNjQxLS40ODQgMS42MzMtLjc0MiAyLjQ0NS0xLjE2IDMuNjUyLS43MjMgOC4xOTEuOTY1IDEwLjg5OC41MTYuODI4IDEuNzM0IDIuNjA5IDMuNDEgMS45MjYgMS40NjUtLjU5OCAxLjEzNy0yLjQ0NSAxLjU1NS00LjA3OC4wOTgtLjM2Ny4wMzktLjY0MS4yMjMtLjg4N3YuMDc0bDEuMzM2IDIuNjY4Yy45ODggMS41OSAyLjczOCAzLjI1IDQuMjIzIDQuMzcxLjc3My41ODIgMS4zNzkgMS41OSAyLjM3NSAxLjkzVjY4LjZoLS4wNzRjLS4xOTUtLjI5Ny0uNDk2LS40MjItLjc0Mi0uNjY0LS41ODItLjU3LTEuMjI3LTEuMjc3LTEuNzAzLTEuOTMtMS4zNTItMS44MzItMi41NDctMy44NC0zLjYzMy01LjkzLS41Mi0uOTk2LS45NzMtMi4wOTgtMS40MS0zLjExMy0uMTY4LS4zOTEtLjE2NC0uOTg0LS41MTYtMS4xODQtLjQ4Ljc0Mi0xLjE4NyAxLjM0NC0xLjU1OSAyLjIyMy0uNTk0IDEuNDAyLS42NjggMy4xMTctLjg5MSA0Ljg5MWwtLjE0OC4wNzRjLTEuMDMxLS4yNS0xLjM5NS0xLjMxMi0xLjc3Ny0yLjIyMy0uOTczLTIuMzA1LTEuMTUyLTYuMDItLjI5Ny04LjY3Mi4yMTktLjY4NyAxLjIxOS0yLjg1Mi44MTMtMy40ODQtLjE5MS0uNjMzLS44MjgtMS0xLjE4NC0xLjQ4NGExMS43IDExLjcgMCAwIDEtMS4xODctMi4wNzRjLS43OTMtMS44MDEtMS4xNjQtMy44MTYtMi01LjYzMy0uMzk4LS44NzEtMS4wNzQtMS43NS0xLjYyOS0yLjUyMy0uNjE3LS44NTUtMS4zMDUtMS40ODQtMS43ODEtMi41Mi0uMTY4LS4zNjctLjM5OC0uOTU3LS4xNDgtMS4zMzYuMDc4LS4yNTQuMTk1LS4zNTkuNDQ1LS40NDEuNDMtLjMzMiAxLjYyOS4xMDkgMi4wNzQuMjkzIDEuMTkxLjQ5NiAyLjE4NC45NjUgMy4xOTEgMS42MzMuNDguMzIuOTY5Ljk0MSAxLjU1NSAxLjExM2guNjY4YzEuMDQzLjIzOCAyLjIxMS4wNyAzLjE4OC4zNjcgMS43MjMuNTIzIDMuMjcgMS4zNCA0LjY2OCAyLjIyNyA0LjI3MyAyLjY5NSA3Ljc2NiA2LjUzNSAxMC4xNTYgMTEuMTE3LjM4Ny43MzguNTUxIDEuNDQxLjg5MSAyLjIyMy42ODQgMS41NzggMS41NDMgMy4yMDMgMi4yMjMgNC43NDZzMS4zNCAzLjA5NCAyLjI5NyA0LjM3NWMuNTA0LjY3MiAyLjQ1MyAxLjAzMSAzLjMzNiAxLjQwNi42MjEuMjYyIDEuNjM3LjUzNSAyLjIyMy44OTEgMS4xMjUuNjc2IDIuMjExIDEuNDggMy4yNjYgMi4yMjMuNTIzLjM3NSAyLjE0MSAxLjE4OCAyLjIyMyAxLjg1NXpNOTEuMDgyIDM4LjgwNWE1LjI2IDUuMjYgMCAwIDAtMS4zMzIuMTQ4di4wNzRoLjA3NGMuMjU4LjUzNS43MTUuODc5IDEuMDM1IDEuMzM2bC43NDIgMS41NTUuMDc0LS4wN2MuNDYxLS4zMjQuNjY4LS44NDQuNjY4LTEuNjMzLS4xODctLjE5NS0uMjExLS40MzctLjM3MS0uNjY4LS4yMTEtLjMwOS0uNjIxLS40OC0uODkxLS43NDJ6bTAgMCIgZmlsbD0iIzAwNjE4QSIvPjwvc3ZnPg==;" vertex="1" parent="1">
          <mxGeometry x="475.90999999999997" y="310" width="58.18" height="30" as="geometry" />
        </mxCell>
        <mxCell id="UQZVPZunHJjyM63au8Hr-30" value="" style="shape=image;verticalLabelPosition=bottom;labelBackgroundColor=default;verticalAlign=top;aspect=fixed;imageAspect=0;editableCssRules=.*;image=data:image/svg+xml,PHN2ZyB4bWxucz0iaHR0cDovL3d3dy53My5vcmcvMjAwMC9zdmciIHZpZXdCb3g9IjAgMzAuNzU5NjAzNTAwMzY2MjEgMTI4IDY2LjQ3OTM5MzAwNTM3MTEiIHdpZHRoPSIxMjgiIGhlaWdodD0iNjYuNDc5MzkzMDA1MzcxMSI+PHBhdGggZD0iTTAgOTEuMzEzaDQuMjQyVjc0LjU2Nmw2LjU2NiAxNC41OThjLjc3MyAxLjc3IDEuODMyIDIuMzkxIDMuOTE0IDIuMzkxczMuMDk4LS42MjEgMy44NzEtMi4zOTFsNi41NjYtMTQuNTk4djE2Ljc0Nmg0LjI0MlY3NC41OTRjMC0xLjYzMy0uNjUyLTIuNDIyLTItMi44MjgtMy4yMjMtMS4wMDQtNS4zODMtLjEzNy02LjM2MyAyLjAzOWwtNi40NDEgMTQuNDEtNi4yMzgtMTQuNDFjLS45MzctMi4xNzYtMy4xNC0zLjA0My02LjM1OS0yLjAzOS0xLjM0OC40MDYtMiAxLjE5NS0yIDIuODI4ek0zMi45MyA3Ny42OGg0LjIzOHY5LjIyN2MtLjAzOS41LjE2IDEuNjc2IDIuNDg0IDEuNzE1aDkuMjIzVjc3LjYzM2g0LjI1Yy4wMiAwLS4wMDggMTQuOTg0LS4wMDggMTUuMDQ3LjAyMyAzLjY5NS00LjU4MiA0LjQ5Ni02LjcwNyA0LjU1OUgzMy4wMnYtMi44NTJsMTMuNDE0LS4wMDRjMi43My0uMjg1IDIuNDA2LTEuNjQ1IDIuNDA2LTIuMDk4di0xLjExM2gtOS4wMTJjLTQuMTk1LS4wMzktNi44NjMtMS44NzEtNi44OTgtMy45NzctLjAwNC0uMTkxLjA5LTkuNDIyIDAtOS41MTZ6bTAgMCIgZmlsbD0iIzAwNjE4QSIvPjxwYXRoIGQ9Ik01Ni4zOTEgOTEuMzEzaDEyLjE5NWMxLjQyNiAwIDIuODEzLS4zMDEgMy45MTQtLjgxNiAxLjgzNi0uODQgMi43My0xLjk4NCAyLjczLTMuNDh2LTMuMDk4YzAtMS4yMjMtMS4wMTYtMi4zNjctMy4wMTYtMy4xMjUtMS4wNTktLjQxLTIuMzY3LS42MjUtMy42MjktLjYyNWgtNS4xNDFjLTEuNzExIDAtMi41MjctLjUxNi0yLjczLTEuNjU2LS4wMzktLjEzNy0uMDM5LS4yNDYtLjAzOS0uMzgzVjc2LjJjMC0uMTA5IDAtLjIxOS4wMzktLjM1NS4yMDMtLjg2Ny42NTItMS4xMTMgMi4xNi0xLjI1bC40MS0uMDI3aDEyLjEwOXYtMi44MjRINjMuNDg4Yy0xLjcxMSAwLTIuNjA5LjEwOS0zLjQyNi4zNTItMi41MjcuNzg5LTMuNjI5IDIuMDM5LTMuNjI5IDQuMjE1djIuNDczYzAgMS45MDIgMi4xNiAzLjUzNSA1Ljc4OSAzLjkxNGwxLjIyMy4wNTVoNC40MDZjLjE2NCAwIC4zMjQgMCAuNDQ5LjAyNyAxLjM0NC4xMDkgMS45MTQuMzU1IDIuMzI0Ljg0NC4yMTEuMTk1LjMzMi40NzMuMzI0Ljc1OHYyLjQ3N2MwIC4yOTctLjIwMy42OC0uNjA5IDEuMDA0LS4zNjcuMzI4LS45OC41NDMtMS43OTMuNTk4bC0uNDQ5LjAyN0g1Ni4zOTF6bTQ1LjI5Ny00LjkyMmMwIDIuOTEgMi4xNjQgNC41MzkgNi41MjMgNC44NjdsMS4yMjcuMDU1aDExLjA1MXYtMi44MjhoLTExLjEzM2MtMi40ODggMC0zLjQyNi0uNjI1LTMuNDI2LTIuMTIxVjcxLjczOGgtNC4yMzhWODYuMzl6bS0yMy43NS4xNDhWNzYuNDU3YzAtMi41NTkgMS44MDEtNC4xMTMgNS4zNTUtNC42MDJhNy45NzYgNy45NzYgMCAwIDEgMS4xNDUtLjA4Mmg4LjA0N2MuNDEgMCAuNzc3LjAyNyAxLjE4OC4wODIgMy41NTUuNDg4IDUuMzUyIDIuMDQzIDUuMzUyIDQuNjAydjEwLjA4MmMwIDIuMDc4LS43NjIgMy4xODgtMi41MjMgMy45MTRsNC4xOCAzLjc3aC00LjkyNmwtMy4zNzktMy4wNTEtMy40MDIuMjE1SDg0LjQ0YTkuMjMgOS4yMyAwIDAgMS0yLjQ5Mi0uMzUyYy0yLjY5OS0uNzM0LTQuMDA4LTIuMTUyLTQuMDA4LTQuNDk2em00LjU3OC0uMjQ2YzAgLjEzNy4wMzkuMjczLjA4Mi40MzguMjQ2IDEuMTcyIDEuMzQ4IDEuODI0IDMuMDIzIDEuODI0aDMuODUybC0zLjUzOS0zLjE5NWg0LjkyNmwzLjA4NiAyLjc4OWMuNTctLjMwNS45NDEtLjc2NiAxLjA3NC0xLjM2My4wMzktLjEzNy4wMzktLjI3My4wMzktLjQxdi05LjY2OGMwLS4xMDkgMC0uMjQ2LS4wMzktLjM4My0uMjQ2LTEuMDktMS4zNDgtMS43MTUtMi45ODQtMS43MTVoLTYuNDE0Yy0xLjg3OSAwLTMuMTA1LjgxNi0zLjEwNSAyLjA5OHptMCAwIiBmaWxsPSIjRTQ4RTAwIi8+PHBhdGggZD0iTTEyNC4yMTkgNjcuMDQ3Yy0yLjYwNS0uMDctNC41OTguMTcyLTYuMzAxLjg5MS0uNDg0LjIwMy0xLjI1OC4yMDctMS4zMzYuODEzLjI2Ni4yODEuMzA5LjY5OS41MiAxLjAzOS40MDYuNjYgMS4wOTQgMS41MzkgMS43MDcgMmwyLjA3NCAxLjQ4NGMxLjI3My43NzcgMi42OTkgMS4yMjMgMy45MyAyIC43MjMuNDYxIDEuNDQxIDEuMDM5IDIuMTQ4IDEuNTU5LjM0OC4yNTQuNTgyLjY1NiAxLjAzOS44MTZ2LS4wNzRjLS4yMzgtLjMwNS0uMzAxLS43MjMtLjUyLTEuMDM5bC0uOTY1LS45NjVjLS45NDEtMS4yNS0yLjEzNy0yLjM0OC0zLjQxLTMuMjYyLTEuMDE2LS43MjctMy4yODEtMS43MTEtMy43MDctMi44OTFsLS4wNzQtLjA3NGMuNzE5LS4wNzggMS41NjMtLjM0IDIuMjIzLS41MTYgMS4xMTctLjMwMSAyLjExMy0uMjIzIDMuMjYyLS41MmwxLjU1OS0uNDQ5di0uMjkzYy0uNTgyLS41OTgtLjk5Ni0xLjM4Ny0xLjYzMy0xLjkzLTEuNjU2LTEuNDEtMy40NjktMi44MjQtNS4zMzYtNC4wMDQtMS4wMzUtLjY1Mi0yLjMxMi0xLjA3NC0zLjQxLTEuNjI5LS4zNjctLjE4Ny0xLjAxNi0uMjgxLTEuMjYyLS41OTQtLjU3NC0uNzM0LS44ODctMS42NjQtMS4zMzItMi41MmwtMi42NjgtNS42MzNjLS41NjItMS4yODUtLjkzLTIuNTU1LTEuNjMzLTMuNzA3LTMuMzYzLTUuNTM1LTYuOTg4LTguODc1LTEyLjYwMi0xMi4xNTYtMS4xOTEtLjY5OS0yLjYzMy0uOTczLTQuMTQ4LTEuMzMybC0yLjQ0OS0uMTQ4Yy0uNDk2LS4yMTEtMS4wMTItLjgyLTEuNDgtMS4xMTMtMS44NTktMS4xNzYtNi42MjktMy43My04LjAwOC0uMzcxLS44NjcgMi4xMjEgMS4zMDEgNC4xOTEgMi4wNzggNS4yNjYuNTQzLjc1NCAxLjI0MiAxLjU5OCAxLjYyOSAyLjQ0NS4yNTguNTU1LjMwMSAxLjExMy41MiAxLjcwMy41MzkgMS40NTMgMS4wMDggMy4wMzEgMS43MDcgNC4zNzUuMzUyLjY4LjczOCAxLjM5NSAxLjE4NCAyIC4yNzMuMzcxLjc0Mi41MzkuODE2IDEuMTEzLS40NTcuNjQxLS40ODQgMS42MzMtLjc0MiAyLjQ0NS0xLjE2IDMuNjUyLS43MjMgOC4xOTEuOTY1IDEwLjg5OC41MTYuODI4IDEuNzM0IDIuNjA5IDMuNDEgMS45MjYgMS40NjUtLjU5OCAxLjEzNy0yLjQ0NSAxLjU1NS00LjA3OC4wOTgtLjM2Ny4wMzktLjY0MS4yMjMtLjg4N3YuMDc0bDEuMzM2IDIuNjY4Yy45ODggMS41OSAyLjczOCAzLjI1IDQuMjIzIDQuMzcxLjc3My41ODIgMS4zNzkgMS41OSAyLjM3NSAxLjkzVjY4LjZoLS4wNzRjLS4xOTUtLjI5Ny0uNDk2LS40MjItLjc0Mi0uNjY0LS41ODItLjU3LTEuMjI3LTEuMjc3LTEuNzAzLTEuOTMtMS4zNTItMS44MzItMi41NDctMy44NC0zLjYzMy01LjkzLS41Mi0uOTk2LS45NzMtMi4wOTgtMS40MS0zLjExMy0uMTY4LS4zOTEtLjE2NC0uOTg0LS41MTYtMS4xODQtLjQ4Ljc0Mi0xLjE4NyAxLjM0NC0xLjU1OSAyLjIyMy0uNTk0IDEuNDAyLS42NjggMy4xMTctLjg5MSA0Ljg5MWwtLjE0OC4wNzRjLTEuMDMxLS4yNS0xLjM5NS0xLjMxMi0xLjc3Ny0yLjIyMy0uOTczLTIuMzA1LTEuMTUyLTYuMDItLjI5Ny04LjY3Mi4yMTktLjY4NyAxLjIxOS0yLjg1Mi44MTMtMy40ODQtLjE5MS0uNjMzLS44MjgtMS0xLjE4NC0xLjQ4NGExMS43IDExLjcgMCAwIDEtMS4xODctMi4wNzRjLS43OTMtMS44MDEtMS4xNjQtMy44MTYtMi01LjYzMy0uMzk4LS44NzEtMS4wNzQtMS43NS0xLjYyOS0yLjUyMy0uNjE3LS44NTUtMS4zMDUtMS40ODQtMS43ODEtMi41Mi0uMTY4LS4zNjctLjM5OC0uOTU3LS4xNDgtMS4zMzYuMDc4LS4yNTQuMTk1LS4zNTkuNDQ1LS40NDEuNDMtLjMzMiAxLjYyOS4xMDkgMi4wNzQuMjkzIDEuMTkxLjQ5NiAyLjE4NC45NjUgMy4xOTEgMS42MzMuNDguMzIuOTY5Ljk0MSAxLjU1NSAxLjExM2guNjY4YzEuMDQzLjIzOCAyLjIxMS4wNyAzLjE4OC4zNjcgMS43MjMuNTIzIDMuMjcgMS4zNCA0LjY2OCAyLjIyNyA0LjI3MyAyLjY5NSA3Ljc2NiA2LjUzNSAxMC4xNTYgMTEuMTE3LjM4Ny43MzguNTUxIDEuNDQxLjg5MSAyLjIyMy42ODQgMS41NzggMS41NDMgMy4yMDMgMi4yMjMgNC43NDZzMS4zNCAzLjA5NCAyLjI5NyA0LjM3NWMuNTA0LjY3MiAyLjQ1MyAxLjAzMSAzLjMzNiAxLjQwNi42MjEuMjYyIDEuNjM3LjUzNSAyLjIyMy44OTEgMS4xMjUuNjc2IDIuMjExIDEuNDggMy4yNjYgMi4yMjMuNTIzLjM3NSAyLjE0MSAxLjE4OCAyLjIyMyAxLjg1NXpNOTEuMDgyIDM4LjgwNWE1LjI2IDUuMjYgMCAwIDAtMS4zMzIuMTQ4di4wNzRoLjA3NGMuMjU4LjUzNS43MTUuODc5IDEuMDM1IDEuMzM2bC43NDIgMS41NTUuMDc0LS4wN2MuNDYxLS4zMjQuNjY4LS44NDQuNjY4LTEuNjMzLS4xODctLjE5NS0uMjExLS40MzctLjM3MS0uNjY4LS4yMTEtLjMwOS0uNjIxLS40OC0uODkxLS43NDJ6bTAgMCIgZmlsbD0iIzAwNjE4QSIvPjwvc3ZnPg==;" vertex="1" parent="1">
          <mxGeometry x="640" y="410" width="60" height="30.93" as="geometry" />
        </mxCell>
        <mxCell id="UQZVPZunHJjyM63au8Hr-32" value="" style="shape=image;verticalLabelPosition=bottom;labelBackgroundColor=default;verticalAlign=top;aspect=fixed;imageAspect=0;image=data:image/jpeg,/9j/4AAQSkZJRgABAQAAAQABAAD/2wCEAAEBAQEBAQEBAQEBAQEBAQEBAQEBAQEBAQEBAQEBAQEBAQEBAQEBAQEBAQEBAQEBAQEBAQEBAQEBAQEBAQEBAQEBAQEBAQEBAQEBAQEBAQEBAQEBAQEBAQEBAQEBAQEBAQEBAQEBAQEBAQEBAQEBAQEBAQEBAQEBAQEBAQEBAQEBAf/CABEIASwBkAMBIgACEQEDEQH/xAAeAAADAAIDAQEBAAAAAAAAAAAAAQIDCQcICgYEBf/aAAgBAQAAAAD3zuciVSVDBXJUt46AnIlUlQwVyVLeOlTnIlUlQwVyVLeOgJyJVJUMFclS3jpDnKlUF42CyQXLeKgJypVBeNgskFy3ipJzkSqSoYK5KlvHQE5EqkqGCuSpbx0hzkSqSoYK5KlvHQE5EqkqGCuSpbx0hzkSqSoYK5FCxcefE/Lx9F9pyL+syN5IYK5KlvHSHORKpKhgrj8vAHQzqdwF8/8Aof56X9Pm/tV3z7N/sywwVyVLeOk3ORKpKhgo+O0s9Fv43Rzp/wBfOL/m7/s8kc69t++f2/Z3d/zHDBXJUt46Q5yJVJUMEaedWWhzUR8y5r7P6fiRVP8AR2e7/tjW+rIwVyVLeOkOcqVQXjYKPNXpk8zybPofVR0a0VfzLJvePvf9SX9iwWSC5bxUhzkSqSoYL+R5U9C+lmGYvRrs+6La9tQVyq2GeoP0lc8UCuSpbx0k5yJVJUMFxp5gvNzq7lncL0qcj9IPj9KfV5D7Z+t30EduaBXJUt46Q5yJVJUMFw/5nfMlraVTv12F8h9L/kOvmj9qufvYZv8Ae5VArkqW8dJuciVSVDBcYeYzzd6sZvJ6n+QeQuoHxd6COP5vtj64PQT24oFclS3jpJzkSqSoYL+X5UdCOlyb5s9Ff3HIvUX4l6lOoaexP0+eknnqwVyVLeOk3ORKpKhgsPmf0mecIvsnvy+7+56sfHXqx6Tp7pt+fqe/t5AVyVLeOlLnIlUlQwUaMtVHjPyPl/0Q/V/cdXPla1P9R0/UXuN9GWegVyVLeOlTnIlUlQwUdBtH/kq6dXk9HfL33PWP5B6ReLT7z2k7atsgwVyVLeOkOciVSVDBL+V5kNWnl5tbRNo32vWP5nhXTalvf3e+mLlqGCuSpbx0k5yJVJUMFePWVp18xmt8/vegfsh1i+e078JHZb12bMNzX6IYK5KlvHSpzlSqC8bBZI/D58ujXkj4GfMXoD/Npp6cn1nrY7tekr6nNjYLJBct4qUOciVSVDBXJxZ52On3lL4bXY/cv53V9R6lO83ob7KFQwVyVLeOk3ORKpKhgrkjr3oA6v8AmD6m/n3/AOgvmX1A9ut8ncqyoYK5KlvHSHORKpKhgrkPz8IaIOveiTTW9n3oM5x3v9qs0lQwVyVLeOk3ORKpKhgrkqF8npu19devgO4vbrdryoVJUMFclS3jpDnKlUF42CyQXLPzdUtTXw+2LvF+rJNSVFAskFy3ipJzkSqSoYK5KlvHX5LzqlBjyZMORtXJUt46Q5yJVJUMmcdzlxusF1Ct9NNF3f8A/nfa9Z/gPSfmFclS3jpDnIlUlQzH5KOf/g/gd8WuTgz5j7DlL7XXRue6adbPVB59fRV5cdx+u3gP1GfpauSpbx0qc5UqgvGyfJB6ivOFw5yD6BPMnzJ6RvKZ9d2S525p0w+vXz4+i/zSbW/gOku77msWSC5bxUpc5EqkqGYPPr3g66cFbg9QWxXph2Y1+9Xf420jgXv52a1fdo++HTPgjsDsStq5KlvHSpzlSqC8bBZILlvEeSrvhsd7kZUqgvGwWSC5bxUsbnIlUlQwVyVLeOsU5TIlUlQwVyVLeOlTnIlUlQwVyVLeOgJyJVJUMFclS3jpDnIlUlQwVyVLeOgJyJVJUMFclS3jpVUZUqkrHQTkkqW8VgRlSqSsdBOSSpbxXKc5EqkqGCuSpbx0BORKpKhgrkqW8dJOciVSVDBXJUt46AnIlUlQwVyVLeOl/8QAHQEBAAAHAQEAAAAAAAAAAAAAAAECAwQFBwgGCf/aAAoCAhADEAAAAAAAAAAAAAAAAAAAAAAACCKWGPtra0r18heVJ4SxiAAAAEHjPP8AOmm/MT18rXuadC0xPoaPQu2tg+sAAAABHhrm7eXXeb9NCh4fSPt95zTYzAc+8edz9HVpwAAACyocWaT6I7BTaw5u17zps3oTY3TE83OnI3YG1c9kgAAADGWvG2nug+u1Dmr51zUchP0B9E61/oHkzrPZHocuAAAAUpeHtCdH9lYvAc4/Nu6z1/jd3/QXPe15y4/7Q3JkLwAAAAi4s5w3f2bPLzR8ya2XyFHfH0TvfQc98SdvdITRAAAAENO6+1JHcvSWneL/ABGjPc7b3D3RqbQXt/Lb52qAAAABLDj/AJ99l0B7PYeuefvfbv8AN4DXPMnZHRNecAAAAAsbXkLQWd3NtHc+vtReI0P2D0DlL4AAAAAClLoHUmlfB7b9p0Rt+5rRQRAAAACCCMITRpQqRtqnnstdW1pd+pwkwAAAIRx2Wo3t1jLC/ubSWvUsoVMLWweUmm2D5KtKAAABQrSVKssJIVbHIXeOjTx1/e2dpXzGPRAAAAAAQRAAAAAAAAAAAAAAAAAAAA//xAArEAABAwMEAwEBAQACAgMAAAABAhESAAMHBgghIgQFCRMjChRBEBcWGUL/2gAIAQEAAQUAEHEG6UYP0ro/SKYP0j0mYV0bpDowhXSfSKoP0j0fpQg/SjBukukhBulGD9K6P0imD9I9JmFdG6Q6MIV0n0iqD9I9H6UIP0owYwdJS6SlnTRKHdLulwURQUuSmLomSmnSzpg6WBTTom6YrKXJRF0uSlwUO6aUUs6ZOmSSlnTRKHdLulwURQUuSmLomSmnSzpg6WBTTom6YrKXJRF0uSlwUO6aUUsopdJuSSbjPcom64Nx3uODdig3HJuRJuzJuM9xnuQe4wNxnuzBuRWbjk3Yvccm44N13uUo3Ge5J7kkm4z3KJuuDcd7jg3YoNxybkSbsybjPcZ7kHuMDcZ7swbkVm45N2L3HJuODdd7lKNxlG5IO4duaLvzXL8xS78x5mXrluYcsHrmfMVO/MeX5oO/NF25lzIO3NF35rl+Ypd+Y8zL1y3MOWD1zPmKnfmPL80Hfmi7F3A5A4aiOWpuW6pHLdW7kU3DdG4Apu7dVDlurctQHLURw3ZuwHDURy1Ny3VI5bq3cim4bo3AFN3bqoct1blqA5aiOCOUwdMG6Ufzf+b9HH5xRBzCP85mFdG6Q6MIV/OfSKoUpSQkrSFfsh/K83xPAs+2zNiL0Vedur25eCL29bbPYuWd7G2i9c8Tdvtr8y36zOeGPcnwPeel9vbHk2isX7dIuoWmSUmSG/nMwro3SHRhCv5z6RXBz+cejn83H5v0pUGVB0wdMG6Ufzf+b9HH5xRBzCP85mFdG6Q6MIV/OZhC4tM8qbmsK4eRrv6Xe08o6u3ebidYp9x773morwtWBcTdQSFC2bpmoAFHU14Xm+d6xWmN0Gf9JXtF/STW3rBireBgzKabPk27lOhv5zMK6N0h0YQr+c+kVwc/nHo5/Nx+b9KVBlQdKi6VFpGisvIvIuFmKFFyoxmZlRqRaRhIsFGitc9ba807j7S2eN9GRMmX1taOqtQaax76TX/1E2ZaETqv7SoQdQfYHdX7C97X6ib3vZn/AOyLfEFI+ku+NB8L6db3vX16n68bt/CvaY+0Wo0Lx/8AWHaVq1egskY2y14JSUVhDdtlfDt/DmZ9J5v0rMzKjUi0jCRYKNTM5GK1FysxkXKi4WXkaUospRdJLpJZzRPL8uXB6oJckxfuSacs5g5YE0Sy/o/lBXm+/wBQag9BpL0G4j65a0915mtdaawyR77gV/04olxjPH2qMuZNz/ijzcIZlBdL1wAIk+o9n7XT3stvv1dzbjvy8Q5f0HnLQexLJS9E5usqWSTTlnMHLAmn7uYrJcnq5cnkHlzSiWUS6Xkl25ou4d+XDxQ7l4l5l25bmHLB2KZ3txmrP/muePrPkO7ozagompcyoK5YmtF6H1rlPWGyraJjraZpTett38XNPs/Z+s9j6T2RLUVchXPBPEfjBka9+fpvfeTpb3fovP8AH9r6pi/Lcw5YO3Mw8Vu5ePLl3DvzSnZTySEukJZk0Qh2S7JcBEUBLkJiyJkJpksyYMlgE17n2SPUeu8vyVeVf+0GpUeVrchh/wB1wKv3rHj2PnptdTgbH/pVhB15eRd11u+2+p196L+a0EA/+P8AviHy11Gr0O867aRdsbYfcp1FgJksyWZMGSwCaZE2TFYS5CIslyEuAh2TSgllBLp/N0/m386P5P8Azf8Am4/KKPzc/nH+Uz+dfzb+cP5sPzrM19Hj4lt2kf8AG+vnuVefu1JcOHcU9bEsLeJmjOnq/IFervoCsg3ko1yPJuS3Z4gsYrybKnFdX6w2G6gGn964IKtiV1F3a7/Ov5t/OH82H51/Kf8AOK/zc/lH+bn83H5P/OlfmyvzdKw6Vhp0Vh5h5hwsRQsOViMxMrFTDTEJhgsVn0LuYVSp7P1kc70H6vy4pVxCU/PrHVvQG3P1/koUj1N0LOQFNr4rIO5/HQyVhkLQUyrkljHZ9aWvd+uSlbBDcG16VTDTEJhgsVMTmIrWHKxGYcrDhYedKWGUsOlSnSpTOqipTyU8lOFKihSnKlRkqZUqpKaSoSUwUqsy2v3xZakbX189efF3WEln5BNeL6fy/f8Anac8TwfS+B4fkpr1XmFKsi3bp13/AMhYpBT+mV9Gox9kqaqC1PNUdg/oke/3sRMNitg+NtdkqpKaSoSUwUqpKnJUVqU5UqMlOVKcKU7qpSlMpSnDuHbmi781y/MUu/MeZl65bmHLB69z65Hs/X+R4y/HufZ7Tlrx9cqS1MXNbafRn3u4n13kha/Wnt6y/wDgrIwUdeMWUC2+L1Z8HOjGmLsYfK3TqtQb0vJWbXjbXvRDTm34Sjy3MOWD1zPmKnfmPL80Hfmi7F3SkulJaJooLxLxLhBihJcpMYGZSaiWiYRLBJpS4Xs/6d8nSeb/AK+aFHvtsp5LctWzu6hG5XwAEnwboTa8G5cUnIt9A10FoKUqQqt+KwvKbU1f/n4u6LTd1V4vrl++83T/AK5HqfVpSWiWiYRLBJqBnExWkuUGMS5SXCC8TSkllJLpFp0i0zWqKbTtadrThNqKBaci1GNqZFqmtM1qDWmAtUq3aUr6I6HX6DM25HGpzHt7t3FX0R5jzt996nTWd3E/XBa7fgXFoTkEletU3QEG+hA3teanyM0RpuSEptfMDGH/AK82ebQ9Fq1xuPsWYCNumtM1qDWmAtVG1NrUVi05Tai1pyLThNp2tUoWmULTpXylfEqK+Z8z5C+qF8lfWfcrqfE+k+Aulll/QXHV7VWF7PkXvHXv3wijA+6EOTSF3rFzGOsfGyDoH1PlXH8DyJVr26k60/RDAla8z6xTr3KbU1Yhxb7fPGW/Wep9X6P1nzPx0PzYAyqfE+k+Aup959Vr5K+s+SvkL5lSl8KXykKdIUzKohbsp2U4C4oCnIVFlzIVTKZlQZTAKoJe57r03r/felyhoH2WLsg/TDbf5WdcDW2VbIFFLj5/ZVHkWPEvf8dfhXwoayWL+q4BtwmRkYzxOAE22DqEEfILblf9X6DwvW+2955uF8a+sxLjVlzIVTKZlQZTAKplzZUVhTkLiynIU4C3ZVKCmUFOkKdIUzKohTsp2U4CooCnIVFlTIVTKZlQZTAKoAzWFm19BMEK1LpZFwz+j20m9t9ycoGUa0zqX3ejtR4My56PM2gvWXrVw6jC0ajv3/H8exuCy5ezBrz/ALD1tG2y+53X5n9J6X1GnfTfPbBV/UuqU20pLKmQqmUzKgymAVTKmyorCnIVFlOQpwFOyqUFMoKdKOyUcQoo5COYchHVCOSjqUdyjiHEOkOAjiHeDo8/w7Pl+Nuu2/8Al4O13lPF+i8z6A3I7b9d7YspLjbUlHODc2amwNrHE+SdJ5j0tuF0he0fk/cjuGsa3RRrHuONd5g13tf21aH2s4pwvh7UGeck6L0Z6PQumxbIBR3KOIcQ6Q4COIdwjqtHJR1hyUchHMKUjhSOwi4i3WjF+tdX6xTF+seszGurdYdWEa6z6xW1ZexZpnMGjMqYq1Xh7Wm47bloDc7jXPeAMibacgFHMXraRl33+Ftwv3OyD7fTnrlGRrQuhtbZQ1psw2Z6P2k6J03pjU2tNQ7bdvnosA6ETGuseszGurdYdWEa6z6xVF+ser9aEX60YsYumDpg3SiLbtbfo4FuKIOYRa3Mwro3SHRhCmtz6RXB7qUGtw2AtKZ70Zk7G2rMSatzxgLGW4zH+6fZ9lLatqRKkmvN8i94njf6B/UeX6rM6A5wZt9yruT11tQ2gYx2kaO9J6D3erfebTtqnpcEejRatptoCKMItbmYV0bpDowhTW59Irg5FuPRyLbgW36UqDKg4PIPD0Ty9Py/VJ5fq/cmn4fo/ANP3fqo8qBIKO+cMFaHznpjNWCNcYF97qLTenNXei3SfJv2foF+x9T5/rfZe91N7Xzre1X5cZTy0cb4wx9hvRWOsb65y9qrbXtb0VgL01tIRT9Unl+r9yafh+j8A0/d+qjy/V+XoHl6J4J5SS6SWc0Ty/LlweqCXJMX7kmnLOYOWBNP3cxWS5PX/tSEKrWGj9M619DuE2Kav0MCm7bu5+2rYP3Les26bGdu22a8u4EowHs1yTme5irEegcQaaDAvyD1QS5Ji/ck05ZzBywJp+7mKyXJ6uXJ5B5c0ollEukXJJFxmuURdcC47XHAuxQLjkXIkXZkXGa4zXINcYC4zXZgXIrFxyLsWuORccJuOUKKc4bQcZ5oGXtmuaMW3MV7ZM3Zlv4P2I44xgUWlJ8YIWktcd1uFKikqBM4uuZmxmA1yDXGAuM12YFyKxcci7FrjkXHAuu1ylC4yhckByBw1EctTct1SOW6t3IpuG6NwBTd26qHLdW5agOWohNXLKTctWkpSkOlqWUpIL0y5EFIVdtJpDrtlCp3FotqMSkAQbgCm7t1UOW6ty1ActRHBHIAcAMwogOwpg7CKQHYRYTIFMGYQLAOx/cVJkC6la1qCEzMxcSRI0bpARdFwLJCpqTQvUhUxcddbs9rHos/6d+W+HvZ7zfJyj8zsu6J8D54/RfX2Vch/UjBFr1uF9hOzfx91m1vSmW9zewbfhaDoYQYMAKYTYRUA7CLB2FAB2FEBiA6Vh0rDTorDzDzDhYihYcrEZiZWKmGmILU9fX7fR9ctmef992MPvZ5eKNlu9P61fWjavsf3xfRTaN9Rvo1v3xn85tqWhduf1p3kYF+cP1O3dac33/e/en9WdjGmcg4i+/e73Av+fz6X5v3yY73E79tw+e/pl9OM5/Ur416ix5uB3TbTto+2O19L/q3gLA/0x30bBfonqyZ0l8Du1lIQu39EfBt4k+qv1RIGwL5zbhdymN9oegc8Y0yJ9EPHv27tpKgLcwwWKmJzEVrDlYjMOVhwsPOlLDKWHStckruNNdG5ccXLjzuOLlyKF3ASu5E3LkytbTuNO5BSrhr/S5dQdyubUWP/Tv+ThAufPP6OWif9Nv+tLQmqdS7HNkuYtGZ+2g75dDHKn+o3/XDfB+f+2W+PI28f5ybCbX0Z+g+ItxPzY+te63bbuw+1+Rf9G+hdQ6o+T/wjy3pfLHyr/0h6GXl7f1q9YtaU+BPmWyq95djxfC0z61X0e+rX1LZWwT453bd3YX9+PB0LY0Jty9PqPTuAprCJ3GC1sLlyYXcitdwk3bsJ3HNy44uXAZrpS7jKWuQdw7c0XfmuX5il35jzMvXLcwupkd6HxEy1vszNlDZ1u8yPtW+Z/yQyV8z9RZg+Fmac4bpvfbY/VZi2sYK+MO8LZV5myz5yYp2d6g+l/xwy19NdeYd2Z72cP7T9pnwezxsszX9b9pemPp19GsifPL/AETbedG/F3elrP6g7BMcfDPNuzjKG1r5l6SwlnTc9hrMma9G4n+PeZ8Daj998/cvZl8HEuG8bYL0PvC2ZZ03aLwn82t1G3j1OLfnVj7TmUUgpSHhyweuZ8xU78x5fmg780XYu6QuSRcZl0RdcC47XHAuxQLjkXIkXZkLZrjNcg1xgFs12YFyKxcci7FrjkXHAuuy6uC62UNq30g+V/0W8Hd/9Yd42k9iWy/FewPbEy6IuuBcdrjgXYoFxyLkSLsyFs1xmuQa4wC2a7MC5FYuORdi1xyLjgXXZdKFxlBcgEOAhmRRCHZFMh2RFIQ7IiyJkIpkMyIMhgEUyJsiKgh2RFkOyKAQ7IohDLtIWpHjWUrShISyKIQ7IpkOyIpCHZEWRMhFMhmRBkMAimRNkRUEOyIsh2RQCHZFEIYhDg8g8PRPL0/L9Unl+r9yafh+j8A0/d+qjy/V+XoHl6J4fs/YHh6J5en5fqk8v1fuTT8P0fgGn7v1UeX6vy9A8vRPBPIPIPD0Ty9Py/VJ5fq/cmn4fo/ANP3fqo8v1fl6B5eieH7P2B4eieXp+X6pPL9X7k0/D9H4Bp+79VHl+r8vQPL0TwTykLklK2ZdFK3CVvFbhK4IStylcClcyFtFbRXCK2AWwSuYSuC0rcpXCK3KVuErdl0pK2iucVzSlbMuilbhK3itwlcEJW5SuBSuZC2itorhFbALYJXMJXBaVuUrhFblK3CVuy6UlbKC5JAdIDMKIDsHYOAIoAcgRYTIFMGYQYMAKYTYRWA5AiwcgOAHYUoBmEmEkgMwogOwdg4AigByBFhMgUwZhBgwAphNhFYDkCLByA4AdhSgGUA4HIHDURy1Ny3VI5bq3cim4bo3AFN3bqoct1blqA5aiOG7N2A4aiOWpuW6pHLdW7kU3DdG4Apu7dVDlurctQHLURwRz//EAE4QAAEBBAcGAwQHBgQFAwMFAAECAAMEBQYRITFBUWEHEiIyQlJicZEIE3KhFCNDgZKx8AkVU6LB0RYkM+GCo7LS4hfT8TQ1kxgoNlXC/9oACAEBAAY/ABy3jJjy/LtU3T8mVy/LsUw5b0ZZN08unYyOXm0zLdOGXcG6cMs1seXpyzSw5btMy3Ty6d7dPNpk3Ty6d7Hlu0zDDl6ss1N045Zobpxy7iy+Xm0zDdPLp2MeW9eWTJ5fl2Jbp+TDl+Xaljy9WWRYcvTlkGPL8u1TdPyZXL8uxTDlvRlk3Ty6djI5ebTMt04ZdwbpwyzWx5enLNLDlu0zLdPLp3t082mTdPLp3seW7TMMOXqyzU3TjlmhunHLuLL5ebTMN08unYx5b15ZMnl+XYlun5MOX5dqWPLecmFqrx0HPzY2q/Ae1erdX4CyrV/g8CtWFqr3fQcrcWvVy9h7PNkWr5uzU6terDoPcnVharDoOa9WNq+no1TqybVXdhzOrXq5ew9/m16ubsOXm16uXsPf5sq1V3YcxqwtX1dGqtWNqseg5o1a9WPQe5WrLtXzHo1GrXq5ew9nmxtVe86DlZiybV/g8CdW6vwFhar8B7Uasq1XX0HI6sm1XR0HIasbVfgPavVur8BZVq/weBWrC1V7voOVuLXq5ew9nmyLV83ZqdWvVh0HuTqwtVh0HNerG1fT0ap1ZNqruw5nVr1cvYe/za9XN2HLza9XL2Hv82Vaq7sOY1YWr6ujVWrG1WPQc0aterHoPcrVl2r5j0ajVr1cvYezzY2qvedBysxZNq/weBOrdX4CwtV+A9qNWNqrz0HPzYfV4jBOfkx+r+Se1ejcnyH9mX9X/KnsV4WH1eLvBOVnTj82/wBPoyT2eTI+r6xVwpzPhtax3lgnuTow+rywTmvRj9X29Kc0YbrJ+rwyT3HRv9PoyT3+Tf6dm/knLOpv9PoyT3+TK+rwyT3DRh9X3dKc14brH6vPBOaNGtd54J7laMv6vrNfCnMeGxv9PoyT2eTH6vF5gnK3pw+TI+rz6U9ifC3J8h/Zh9X8k9qNGV9X34JyOjJ+r7ME5DRj9X8k9q9G5PkP7Mv6v+VPYrwsPq8XeCcrOnH5t/p9GSezyZH1fWKuFOZ8NrWO8sE9ydGH1eWCc16Mfq+3pTmjDdZP1eGSe46N/p9GSe/yb/Ts38k5Z1N/p9GSe/yZX1eGSe4aMPq+7pTmvDdY/V54JzRo1rvPBPcrRl/V9Zr4U5jw2N/p9GSezyY/V4vME5W9OHyZH1efSnsT4W5PkP7MPq/kntRox+rxOCc/JhaLxh/uxtHp4VatePT/AHZVo9PArVhaL0YaebXjly8HmyLRzZanVrxhh4hq14ww1XqxtHThqnVhaLstTq145cvH5teObLTza8cuXj82Nouy1GrC0dWGqtWvGOGqNWvGOHiOrLtHNlqNWvHLl4PNjaL14aebJtHp4E6tePT/AHYWj08KdWNo6sNDqwtHThoNWNo9PCrVrx6f7sq0engVqwtF6MNPNrxy5eDzZFo5stTq14ww8Q1a8YYar1Y2jpw1TqwtF2Wp1a8cuXj82vHNlp5teOXLx+bG0XZajVhaOrDVWrXjHDVGrXjHDxHVl2jmy1GrXjly8HmxtF68NPNk2j08CdWvHp/uwtHp4U6sbRecP92FpvGX9mNp+XarRrz8v7Mq0/LsVowtN6MsvJrzy6dnkyLTzaZnRrzhl3DRrzhlmvRjaenLNOjC03aZnRrzy6d/k155tMvJrzy6d/kxtN2mY0YWnqyzVo15xyzRo15xy7joy7TzaZjRrzy6dnkxtN68svJk2n5didGvPy/swtPy7U6MbT1ZZHRhaenLIaMbT8u1WjXn5f2ZVp+XYrRhab0ZZeTXnl07PJkWnm0zOjXnDLuGjXnDLNejG09OWadGFpu0zOjXnl07/JrzzaZeTXnl07/JjabtMxowtPVlmrRrzjlmjRrzjl3HRl2nm0zGjXnl07PJjab15ZeTJtPy7E6Nefl/Zhafl2p0Y2m85f2YcRvGOvxseI+vhX425j6/+bK4z+kK8bDjN7v8retuY8ufg+NkcZ5v6nxtzHDHxJ8bDiOGOq/Gx4z0/mnxsniN2ep8bcx5c/H8bcx5s9PjbmPLn4/jZXEbs9R42HGer81eNjxHHHVHjYcRxx8SvGxq3lVqwULLRfWsMBxlRRXugkkCoivmqwOP9CTYs8SwKt4kmrAMqLj4hzAQjpG+9io6JdQcM6BSkJ97ERT1y5d7xqA3lismplfvjadQKXKSK1Ooql8iS/qs5XCI9b5ZtuQgqq4iAmsip7tmoOVi9ENMYiYr5OyBhYk3pq3+Suob1ZAJQdqkvec3HDSKkcQiuruRK7KybK78K6mCBtRg0XDffUfpM4dioYvFSqrzxDb7rbJQ5B3QVIi4qPgFglKrCmLgXVSs04GoG8VoEr2q7PY0vFpdoS5plIkrUtXKlKX0e6JJNg1ZT+UTaXzZwbn8rj4WYuSd1VnvYF/EOt7Mb9hsLBFtfCaiuo1psKQCq0jEAkisWWiveVWgWgVqv4BVUAa7a7mTVvDi6ju4nNVdWN11rdSrrjqPFowFasK7brVeLXRjxnp/NPjZPEbs9T425jy5+P425jzZ6fG3MeXPx/GyuI3Z6jxsOM9X5q8bHiOOOqPG3MccfErxsvjPMfzHjbmPLn4PjY8ZveflZ1snjP6QnxtzH1/82HEfXwo8bHiN5x1+Nhwm8Ya/Ax4T6eFfgblPp/4MrgP6QrwMOA3u/wArehuU8uXg+BkcB5v6nwNynDDxJ8DDhOGGq/Ax4D0/mnwMnhN2Wp8Dcp5cvH8Dcp5stPgblPLl4/gZXCbstR4GHAer81eBlcJrqVeLL0eBg5AO+oKITw75ArNiBxa8oABrNQFYfuaaUvgTOHTtb4UZkh/f1IiQdxKHstl5UiCD1YKHT+YxMHDqej3fvKwWiHGzXZvBwUGU7kJN6cRqot+ver3XypFJnzqHdL3CkpdGZRQB5nvQl67i9pk5kEM9WVGDolBwNFQmtKRuCJlbhE0UioAoL2YrWRepNe6FxVIZ9Pp9EvN4vX85m8xmqnh5yVqmD6JUSVElfHaokm9gtCXDpQJNbt0msH4d013kEZE3BtwPAk1Vm33RKRugpq955H/TGhZXuSEV8xD0uwo4EVqRv1W221EsHhNb6oCsqdvDUkWcTxSs7rqjdmN9aUqITvAoh0W2k1rC1V4VEoB0DDehw8VWKt93XaMa696/X8mD6WzCYyiIQ9S+dqlcZEwK3bxNqXiFwzx093kmohW+LbTWGQ9lO1alkQAh07MLSN+4pXAlKKyAIaew0WtG8FGtTuISuxNo3U1Q0LT6gUkpPCgoTEzKj8W8o9M90IQlT/6FF/Tpc/eVhay5h0wu+pQCXiAKjCS6CpS6ovP4kEuqNU4d/wCHZo83VqSj6O/iHq5VHh+oVQ5gZhFPF1oBQ6WHiEJUi3fKKqgFAlR6d2squHElJQLazUKwngv0+K41WseA9P5p8DJ4TdlqfA3KeXLx/A3KebLT4G5Ty5eP4GVwm7LUeBhwHq/NXgY8Jxw1R4G5Tjh4leBl8B5j+Y8Dcp5cvB8DHgN7z8rOhk8B/SE+BuU+n/gw4T6eFHgY8JvOGvwMOHEYIY8PyR2rbl+SGVw/yo7FMOHF30oybl6ckdjI4ertRmW5csEdyWHDlgjNbHh7elGaWTw4ZIzLcvTkjvbl6skZNy9OSO9lcOGSMwxwreFPKiwVmuq2rNp7TGlk3cSaj0hhHkVHx71wuIUKniHDuFhIRzVExsyiopTpzAQUNW9jFLCXVaiGjpFs9iZhs5oM/XEuCZc/S4plP4cncTETmeQYT+51PkgLEkkj9wXEOtbuNi4vlS9eJAS8eqePnzxb0JfP3gRxPVv3m+t6+XXW9Wt8lb2s1rKrD/iPaLSijVA6Lu3HvhPKbT+UUTl71Fj159AXOImFXHJQ5eO1F3BO4x89WanYUpSUGIhZLS6l21uZQ0W9hUQmy+iUWZQ9Id72+uktMP8ADcv91vkhcRAw0a5Kgv3RfICHii72d+zc4W7rIEx2i7Q4mJXUDUlZklDpNABFlS1BU9WE8Sa1JFan5kVGdhtFIdY3Yd3D0HmE6WjiBSXcVSWkkd79YAIscCwqO6On6rapI5EgrB93INmmz6DdgAEbiH7+RR0VuK3gSkvyFKQgk8AZX/7g6SO97phpFQlw6F/QqjakiztSnUEskp9oWlRIIvkNB3gzvNG6jbpYQGSte1+DnnDdSTZ5s9m4zrIeUfhzv5n3ivMlnKZtA7GqQOg8QXn0/Z6+k2+7CuJBfUdncpLgLAI96hytaL0C5iKeezhR6LKQ7QuKoNT2cSJ92LeqgKUS2krl6XxrLtCI1whFgW+QKyziEpdFbQ9kce9MMgGllERSCSh6/UsPAZ9Q6NmoDmFShLxb17KocrS9AQ7JSvd/eWyqn1D9o0CNwmMohPoCaxTlysAhcZI0PYeey6oklTiNlzp8gmtVhCUlypIqS9SFBRCuN0pVSq11qQQobyRYUE7ptBrgpc7mMTTChro7r+jFIX76Pfu0h8V78gmb4ripeXSSspcF+mD95UVuFu6w0LS+h0Yt9BF6uDj4CLcuoaZyiZuUVv5fHOd5dbxO/vh6g+7eo92twpTvfLHh7elGaWTw4ZIzLcvTkjvbl6skZNy9OSO9lcOGSMww4e7pRmpjw54IzQ3LngjuUy+HqPSjMNy9OSOxjw4vOlGTJ4f5UdiW5fkhhw/JHahjw4nBDDhTeMVMeBPqrtW3Kn1UyuBH4l9imHAm93irJuRPLmrsZHAjm7l5luROGKu5LDgThirNbHgR09S80snhTdmrMtyJ5c1d7ciebNWTcieXNXeyuFN2asw1e4jm3qt5Vtp/3ah+x+WPguCk0KmmlKXCSCgzeYhcLReDiSgEO3kBK3UfNy53lIUJnAkhK3KQKQUxpfN4Sj1EqISGY0jpPPo33q4eU0flDlcTHRC3LkF7EqSlO5DQTooXFxS3UOhSFvARGUd9l6QpoBRxw7XBo2oU2gISdbQ5ylSCHU1lMhfun1GaDoiEfXy92+ROJ2lyULilOVpJEVSraHSyklO6Sx63jyJnlL5zGUjmhUsVLQIyYPHiHTlVQDuGgncLCOUbrp24AQ1ibrqgRaRVWKhgMjhUwG6CMyBYSBcLsjjcGJqxtNVteFRBwuzwa2spGBNQBNQFddl5NXmKja1A9lNBpdETaltP6RyuRwELDILwQMsfR8KJ/SeZAIWHMko1JvpszmMW892hIcO4ZL0Poh0he0HZjEqexMJReksyhZDNFPFLdzqjAjHyJDN4Ze8svXMRBIRDKeKJerioSIW943hJSCCRUBzEi5RswyaxJH3D++rFIFQvKRYDXXbVWP7sCEjeCkEcNoUmspUMQpBrIN4NdRGKJ3R2aTKj07h3rl5BzmQx0dJpzDxaVhbp+4m0qeuIyHU7WN5KwogqJCgay0PJNtcIvbrQ0Kcwj2YR79xJtq0mdOUJQuKgKRwrkQNKXEM7Aerg6SwYiI0BDoz1xapNH9qGzSZxE3ojSJUS4h3sZBKl81cR8BFKhJnLJrLVP4h3CzmBfod77mHfvYNENW+hnj128Q8eQ9FXz95DyPajBGj8Y8948LuHn8pcRcbR6YJd7/ukCIhveSasOw9K4iHBWHbkIYqVuGsIqRvElJCzvEqHNWaqjljWw4U3dysy3InlzV3tyJ5s1ZNyJ5c1d7K4U3ZqzDDgR1dS81MeBOOKs0NyJxxV3KZfAjmPUvMNyJ5c1djHgTe8xVkyeBH4l9iW5U+qmHAn1V2oY8Kbziphx4j7NGfmx4/+UjtXq3P/AMtH92Xx/wDKR2K1s/RYceLv7JGXn/8AOLc/R/CR2efz+9kcfWPskZnGu1ufL7JB6k6sOPL7JGa8a2PH2/ZIzRhWyePD+GjuOrc/R/CR3+fz+5ufr/hIyzrbn6P4SO/z+f3Mrjw/ho7hqyAF1ErI3ihIq3llFdVdwJuuubaxPFvS9cqpdMZTAl1uB0iV0a3JDK3VSTu8ENL1KVjvPVEitoShsBEJERto2lyiisa7crQIldFqGwKKX0jhlo3wtUvjY8yFxHWbhTGIRUs74QpZUSpQTvqIBK1lS1LVbUaq1BKK7QgVFrzd2jt82vN6+kYDzYWm3wjtTq1QtrCjhgComvIAEkm6+tqNbN9mske0lp1TGOEDIpQ7WqGh/dI3DNJrN5l7t67k8hk8Ct7FzaZxLoodug6g3IMdHQSVvHUsW6pTtUpNBwyNou06IhHTqaTh6haHwo9Rty+L00aoNLnxW7gJFDrQ/mBQZpOHkRFvXHuKRRUkeupbtHojPZ67o/ED3TiAm7hUXEv4qi02XdDQ8Sp89XLHroqdwk0SlDvcdPVPRMJLOYKIls3k8SuAmcvjHXuIqDjXBDp65fIO7WpNhCkb6FoqfIUp0SsVb13hDKt/lT2nVhab0dIy82tV09o7WTxY3VGqyu/DD7m287Go6MW+cQT+je1Wj0PFLdbkMZolFDqSuIF0T7x2RFSyRTOJLtJSsTBzvHn3ZDSmEfP3cTRqeSefuRDJQIh8ZRMoePMK7FaU/wCbQ4VCGtSU7j5QKkprIl0xhVhTmPgIOMdqCUqBcxbl3FuqiDURuP0qBF9foTv31fZpbn6P4SO/z+f3Nz9f8JGWdbc/R/CR3+fz+5lceH8NHcNWHH3fZIzXhWx48/skZoxrbnz+yQOpWrL4+s/ZIzGNdjc/R/CR2efz+9jx4vPskZef/wAYMjjz+yR2J1t/Rbn/AOWj+7Dj/wCUjtRqx48T9mjPzYWKvHWc/JjYr8Z7V6N1fjLKsX+PwK0YWKvd9Zytwa5XL3ns8mRYvm79To1ysOs9ydGFisOs5r0Y2L6evVOjJsVd3nM6Ncrl7z3+TXK5u85eTXK5e89/kyrFXd5zGjTSZPgUupbATGPUver3UQMHExgUoq3QN0uBvV4FoiLqKX0ZFxcc/Upall7Fx0U+in79T1Q3lFS4gqDeznQxHuFGSbPqaUrjA7QfeJiqVUudSxwFkkA7kFRxCEvCjeKClFqTWDWknS0YtyHlzPYx4DevE5MD7tVgJsrrNSAahqcGeRDxQCHaA9HOVPAg1hDpCEqLxbxYLl254VxDw+4dpUp6ATT2mstLjbTtNlcBET9zEuCIqglEHyHcZIaBQT4KQt3EgPBMqUxSAh7HTREHAxDpDmTw7x87KkJBAQo+7RV7wpq33lRr4lJCK6yRWPOum74IWUv6Vzt6kLH2TyJU9dpWgEpDzfKT7xBrd1EJ3hfGbTqJwCntOaLS5b2eQDmG3oil9HYVy8MUol0jdezySwwRHpiVhCo6Uu3sM+W5WEIWh67qeIWEFCk71S0ruUAQkhIV9WqzgXwmziZR3T5CvtIYcBvRicm5Dy5nsZP1ZvzOrUTltaHjunOzzaHRJ+vcKFoeuYGHpZB1rCgFhD+SIQ6JQpQBXUgc7PXKt7dfululpJrrS9drQUgZkK3caibLW2QzarjfUCo64f1PCsCIgYJEA+QV9akPIVaFEivhtqNYYWKrqwWarzdZlU1yuXvPf5Ncrm7zl5Ncrl7z3+TKsVd3nMaMLF9XXqrRjYrHrOaNGuVj1nuVoy7F8x69Ro1yuXvPZ5MbFXvOs5WYMmxf4/AnRur8ZYWK/Ge1GjGxV56zn5MLReME5+bG0eie1fia8eif7sq3+VPYrxMLRe76U5W9TXjlyT2fEyLertTmfE14wwT3J8TC0YYJzX4mNvb0pzT4mTaLsk5nVrxy5J7/AImvHNknL4mvHLknv+JlWi7JOY1bam+3qg42eUzeVgBJG7II8gpUDWFcQHmpndaz/wDToJFQH2TusVg12XNJpWVoUKN7C9m8vXUncKX8yfT6fvUlNtoTHuxXevcCzVvbqVVm8JI4E/fi3/D2J7GPmvoTk1l9Rq4U9qcbajkcDncYGcziBTMKB7InMJTWewsUiuCjqYCKdO6ASSPcKUHUWHcyREUnioBVYewkqgnz5IcxKqkb5UoKt3lrK171TvfWtVhU9fqTvPl1gKISAlIFqDvWISLLKjanGsVXXY6i+laEAEfv6NUVWC1fu3mt2/VhniwUhZQUBYdpAAQN8lS1EXqKwA6ek2PHB90UgM8mcihkOKG0/cxM/kkNDoIdSeNTEfR53I3SlPFpdIhY2uLcQtrx7LlIiilG8Ax+EdIu3TrqGHmjoTk1pHL2+Dwlk2i/JWurezU/e7hRHU6jZCscgIpBRCkEndVm0Eh5FIeh2QA8LkI3kb++hKLEVboD2oGriIB3a8N3eNtWFbbMiVHdQ7pC5qVUoo91SqdIDus1ciQABUALhY149E/3a8cuSe/4mvHNknL4mvHLknv+JlWi7JOY1YW93SnNXiY2jHBOaPE14xwT3K8TLt6j0pzHia8cuSez4mNovedKcrOpk2/yp7E+Jrx6J/uwtHontR4mNovOCc/NhwG8YHP4mPAfRXavxNyH0P8A3Mr6v5K7FeJh9Wb3eCsvibkPLkrs+JkfV9WSsz4m5DhgruT4mHAcMFZr8TH6vtwVmnxMngN2RzPibkPLkrv+JuQ82SsvibkPLkrv+JlcBuyOY8TbYQ6qC17M6ZJSBgr90xC1V1qr/wBN1ZkaziWACSK3KANN5CNbjng1JanJQBsy2SB2VfaIFFqia67TvCoqsxYiq6ofPza4cuvZ5sqwdbKU83UIQgvFLNQShCHe8taiTVupSkqOFhJajs6iYQOZ7tPmD7aRNnj504cRIhpq6RA0Vg3xQfePVy+i8DCQ6UKFVcQt9UlS1Eu7crtAKsdbsb8GFVxABtrtrFVv3tSpFQ3TOohVtp3i7c122GrRiKheBdmD82pTCuoV2/nVEXDymtHhUEPnUXIEOnk3hnBA31vJlJ3UZCByCA8eLcqIWp2kNvJTzu3b12L9xCgN5C7TWUlQFZq9Cw4U3ow0blFxwPboyeHq8Wurey2hArWNtlEXiibSEO3U2ekV12Dm3swAAygBUpVgHm8eAVj7882oEp4K9+Y0vU6ABFTn/GE4QjHQnItyH0P/AHNyHlyV3/E3IebJWXxNyHlyV3/EyuA3ZHMeJh9X3YKzV4mPAccFZo8TchxwV3K8TL+r6jgrMeJuQ8uSuz4mP1ZveYKy+Jk/V/JXYnxNyH0P/cw4D6K7UeJjwG84HP4mFibxln8LGxPy7V+Frk/L/tZViPQdivAwsTe7wGXwNcnl07PhZFiObIZnwNcnDLuT4WFicMs1+FjYjpwGafAybE3aZnwtcnl07/ha5PNpl8LXJ5dO/wCFlWJu0zHhbafDGpIiKAUzd11Dd46Ox6TXdYDbgGQkgf6DoYV1h2gduYztaj0xNVdIthlA5kpfUuIlE3pFRl67UTYQlEsChjUhLKuvOAzFTYcuQ7PJlXdd4Tof6NKaPQqiX9JJ9JKMuLcJ/NIeVPVjV2iJUU3isCoK5TAyOCSpzBymEgZZCw7xCQFQkthHEvdVIQEoQEiFrASlIFtQDOwAANALOXOv+tWLI3FbpJTkMFXj9W61tShbtI/+7LJVYSVGHhio3VWkksQpArFVfLfUfLFkqfu3T10V1v0Palu3jtfA/DxFgWhTpa99JsIrDU7oc5WlcNRylEzl8uepqqfyp48EZLXllYqVBRUNUmsAJdIHTYLcUYDJr8DgMEsm3q0zLezjCvXgQYam81pAUEgBCqL0NpNNXQQMK1mFPhIRcbgsgBQCFEiquve3ibs7jW2y9FSSVuJ6/Nxtf0qnL01mo1m0b2t9tbXJ/X/C1yeXTv8Aha5PNpl8LXJ5dO/4WVYm7TMeFhYjqwGavAxsTjlmjwtcnHLuV4WXYjmOAzHga5PLp2fCxsTe8wGXwMmxHoOxPga5Py/7WFifl2o8LGxN5yz+FhaLxh/uxtHp4VatePT/AHZVo9PArVhaL0YaebXjly8HmyLRzZanVrxhh4hq14ww1XqxtHThqnVhaLstTq145cvH5teObLTza8cuXj82Nouy1GrTKWrBKJnAR0E8qFdkZDPoI1A11kJfEhNdtVQZ7CFCgYKMjYJ6jdKVO3kFFP4Z67WCK0rdrcrQ8SQChSVJsILeztTZ1W7/AH1s/ptRCMCxUHj6i9K4GaQZQq3eLiEpIErTXWFRDuzjSSSMRXjXeGuPLl4GUKjXWPvbYrA7qyhFPoGcRe5WoGFo5Axc+QhVoFQiIZKiTypBUeVl7yuFddRJABqrOdTIVXZuc2FdQx82S9FZKd2wWm0Ltqyu9Q1JyUkEzYkio2Ew0KxsN4w82BurBtNgr1LOo9DtaXVI6B0bmCQUkBK5WYujqjkd51JnB3sniSbSwsN6MNGuPLl4GTYb9dWo1HmsQlCdmW02lr5ISSPpK4KW0Rlu8ochQ8pPEOraq3p3LVM8em0OnSl3GutCVHWuwGuq0tsflCElJcbP6PPlBSCk78dCJmC1FJqI3lxajniRWybcMjgTq145cvH5teObLTza8cuXj82Nouy1GrC0dWGqtWvGOGqNWvGOHiOrLtHNlqNWvHLl4PNjaL14aebJtHp4E6tePT/dhaPTwp1Y2i84f7sOLEYoY8XzR2rbm+aGVxfzI7FMOLF31Iybm6c0djI4uruRmW5ssUdyWHFlijNbHi7epGaWTxYZozLc3Tmjvbm6s0ZNzdOaO9lcWGaMwyDXWUvSKqxUVJVvhJzBqArDbWpB7n3SYWnM+fONxDt27MHM4v8Ae8teJSmpDp2qDmLpdgtUHiL3aq6F0yhnEIH+zfa5LfpkWtB+luZLTqSRsjfuy+tKIZc9gaPrfAWe/LsLFnCbFJNQsWNwivdwJwqqVikkA3hsOXMdnmxtvNQuzurrxbZUtVfDFUosSgqUp6mic6SkJA5uHEahgSbE172eIu8wzrdNtYFtl4rF+dmbWKQbBZX+ss/QV10m3zxKmm8KhWN0wsLu255tWDYd03HEFkg1m2r1+8YaVNQU11rOzFAWLt3dpTPd227iFuttYzF16MRl5tXWOXPw6Vsm4213jAlvaN2mxEM7WiXyigmzKXxZh1mJXERURMaXT12h+akOnQcuZAp/uk774unBG+0uo/DKKoqkEyl0ihq90f5ibxzqXOzWpNQIeRII3qhZaaqy0tljkBENLoCDl8MmxIDmChnEI7qAqq4HQG6ABXX221b13iTmW5unNHe3N1Zoybm6c0d7K4sM0Zhhxd3UjNTHizxRmhubPFHcpl8XUepGYbm6c0djHixedSMmTxfzI7EtzfNDDi+aO1DHixOKGFuI/XMxt/W6vxtf+vxMq38uxXjYW4u/yt62v6dOz42Rb1aZnxtfll3J8bC3L81+Njb25Zp8bJtw/qfE1/Tp3/G1/V/T42v6dO/42Vbh/UeJgQSd1ZVcE1VkjutFV9bSqljlyp1B07oxAl8/DtO48nFGXqpdFOycXruXGCW8UN2pKwKiU7x23bL3DgxkzpjQKdGQOnaUe+/xPIXjqlVG3bgvCQHr6dSeHhQRUVIflCSFK4i9eB67eqKveuFneUiJrSqLC0VJKFOninbog1cYeJqrdmvq5e3webG+uvEXY5tsgnXvkQ7lzTyTSx4+eVbjpzPUxklid+sXKEaiu6xRFYLKCBuB2VgjmsQ8LoZfahafNFdygA6JNQFtorBIH9jXixNqqgMNFebUhUd6szBNfDd/lISy9gNxdm6K68gdG3ihQAqJtBqCRWTUBXnkWgJcN9S5BQCjMDELvSX8xezmeboF6KoaPhypKiSSN6ysADmvR06ebY2py8Pmyni1oSh0lbxZUSClDtKnrwr3Ur3EpdJU8Kjgm7FqAzGNcPIOb7VpnSLbJOQXRD5bik8W7hKMIfVkLDhxRGUSmJQ4UAXhfLeu0OwuptmMvXDh/AyKPjKczdChvh3A0XgnsTL3yxgHlJH0mhxWSAqskG4DfrNW7u2EG+sV1qtUSVqNQqqOjX/r8TX9Onf8bX9X9Pja/p07/jZVuH9R4mFvdlmrxsbc/wA0eNr8/wDqV42Xb1HLMeNr+nTs+Njbi8/KzrZNv5difG1/6/Ewt/W6jxsbcT+uZhZiOjX4WP8A2eFfhb/w/wDFlWfyDsV4WFmLvo0+Fruns8Hwsizq7BmfC12XR4k+FhZl0ar8LGzt6BmnwsmzDs1Pha7p7PH8LXdXZp8LXdPZ4/hZVmHZqPCxIKbSomsVVG3IWD512Zt/iyAh/fTHZtNXNIVLCPePP3HMlOZTPAEIdlakOi+hZi9SlTtKXcM+WomoJEPGOFoLx2URDhaKkB68Ci+cl1XhupdqUhRJVxprG8G2jSOXQyHFEqbRitp1A3rpwHUGqi9Mop/HPpbDJShCB/hqkf75kb52lIW69w5CulaunICrDdGjGootKrRpazuJhFhEZDvnMZBKBqLqOg1u4iEeIIIUFJfoQd4EKBJUFJIBFEqdwG6YalFHpXNA6Sr/AOmjH0M7/ecG8UpSyp5ATFzFOX7uv3gePEEnmB3Pq6gneBINZJ3RnVj/APNQZaHm4AahwgYJOdYakNf/APYgXZQkJhulj5jAa+BkJd7pClJ3yRah2LXiuEWVJClWggC+wFtoFKHD/wB5CzWk0yEv949D1H7plK3cnlz1w9DlKXjhbiEdF2i92ha1HeSU7otRejLLyYXGsAcNWKcKhl/Uts/2JyExH07aLSiBkcdEQ9bj910VcqcTOms6iHjtJUYKR0Wgpk9fvAd4xMfAuhaSFSyj8lg0wEkkcvlsnk8ucoCHcFKpNCupZKoMBKUiqElrlzCWjiCSpda1FZ2i7XI1w7JjX0Hs+o+/KVB79FlKlTakb9O8gguouZRsBCoU6IQoS1SVBS0bxIt6enVPhYajs1Pha7p7PH8LXdXZp8LXdPZ4/hZVmHZqPCws7ugZq8LGzPo1R4Wuz6PErwsuzqPQMx4Wu6ezwfCxsxedGnwsmz+QdifC3/h/4sP+zwo8LGzE9GvwsOBV4wGfmx4Feg7V6tyK+X92VwL9PArVhwKvd4DEWYtyK5ch2ebI4F82Wp1bkVhgO5OrDgVhgM16seBfThqnVk8CrshmdW5FcuQ7/NuRXNkMvNuRXLkO/wA2VwKuyGY1Y2LO9vVioZnHHKppvI5rDJi5ZOZXMZRHwz0ncfQMzhFwUW6VuLSQFuHygFCpTtVS0EKFbUq2dTZw8+lUYmj6EhYtTouXMfJ3ilxEkmUMFnidx8ApC1FFqFuau+tVL6LS9EVtF2JmZ0rlbp05W9mM9oLEOS/ptRuHDtYD5cMiFh6RSqGLtakRkPHF0pCHz50+drArC0IUDulBWFoBKtw2pXXwvBgtKwkCwNZvdeFeGdY/If1NR3gCDWaqqhuCs112eeF7TrYzOYwOn7l7F0zoQ5fHdK4N+tP+I5IBupSqNhYoomjl0g1qcP36twOnbJSEkquqqFdXDaAT64sCUlClJITfVv7yK1X4IKgQbLaxpPntaq1zWIzudlDtHVghCR5C22stVx11jPJXiafxjiNQ7pDSlP8AhCiiXCwI13GzWHePZtNgeh3KJCp+8dPALJmXIurA90jeDsGtKCSQk7u5w7xqFnNukBSq1mtRrbG9GGnmxe75SlCOJJQlO+olDsbj4k7hdBZePK0kVJQBaS1IfarpXArdR1PICLodsYcRTkuoyGoM4mUK7pbTF5DvAVFFNZzLoWWSZ6kQ7wyWURUY7WIOMX72AkMkh30RPp9GwMlkkMqp+uKnMzixAQrr3bri92iIUFRb6sodug+e7yXaCoUO2fyut4mjcoh4WOfjeJj5u8ComcTBalqUta4uaP4p9xKISlYdpqQ6QkHgX04ap1ZPAq7IZnVuRXLkO/zbkVzZDLzbkVy5Dv8ANlcCrshmNWHAvqw1Vqx4FY4DNGrciscB3K1ZfAvmOGo1bkVy5Ds82PAq95gMBbiyeBfp4E6tyK+X92HAr0HajVjwKvOAz82FqLx35+THiR/P2r0a9H839mVxI/n7FeFhxIvd9+XwtzI5fH2eTI4kc3jzPhbmRh39ydGHEjDvzXox4kdPfmnwsm1F3jzOjcyOXx9/k3Mjm8eXk3Mjl8ff5Mq1F3jzGjDid9VtS81eFl1KRWUqAsUezMVFoXbDIoSIfTihcMYSk7qAdIETH0PU93xHFKEF49e0afvAHti3z6WPogjddQxYrIBNYfO3gqU4duwXYWv3dpeOYlCfe+6WD75z751UpDypStoVC5aXWxra1NIuYSxDh0swlAqaxHvoukmz94sJKESuI9+icUQe76a5ZG/u5ClxkvikOuffJG8Sd0Ee8SFBAANqEVhCFdaQk23kWpItrFfgAIq+TSWllG44y+fUcmLibSuMrrS6iYUha3b9IqWuCjXCVwUycoJU/gH8Q5SlS1IBldNJI8DuIWpMBSWSvihUdRifpStT2VPyhSiqFiS5iZlKYhVXv5e9Q7SVPIR8HaFndJQQUGsblZWhChXyk1qFlZNtwsaeoerRvu5zHovFYAfmoEE2X1VXjINFxMXHQkvgoKFjJhHzGNJRBy6WQMOqKjZhGrsqg3CXFbx4g1ukniqJCSqZy5anND5A5eSaiUAt0p0pUAh+HkZPI5KqlGZ0gja5oEVf5NwHcCd10jdN7Cri8qzWACTYLTwgnQVnCtoHZ6S/l2zeQQ8LSHbNShw6tlFC377cdUdl794Uuk0ip+Xa6Py1O8X8FKomazxCAiAQ+TJqPUcl0JJaPyKWQEjkEmhUbkNKpNKYNzAS6VQyBaXEvgnbmEQSStTsBa61PlFT/bpP4IiR0bXGySgTuKhyEzCerJgp7SZwlaEoewkqcB5KZY/chbh9Ev4586eFcMSBuqFYwqstKq7r88bfvY8SOnvzT4WTai7x5nRuZHL4+/ybmRzePLybmRy+Pv8AJlWou8eY0YcSOrvzV4WPEjHvzRo3MjHv7laMviRzHvzHhbmRy+Ps8mPEi9535fCyeJH8/Ynwtej+b+zDiR/P2o0Y2ovPfn5MLV3joDG1f4B2ra9f4Qy7Xn4B2KLC15e76BiP1Vm16+TsHYyLXlqx0DMtevDoHclhavDoGa2IredPQK70Mm1d3YO4tevk7B3tXWvn7Bk16+TsHeyrV3dg7gwFbzq6BXetjzm/oGaMWiIOLcIiIOLdPIeJcRDlL1y9cvgp09dPXSwUPXbxKlO1pUN1QUQWeP5ZCPhs9pVERcZRKM9083JY8S/WuLonFPnhNcRKyrelQVU9fSxfUtBSmk2zDaFLFzmiFLpcYKPdOFukRcvikIfqldIZNEqClQU8kcW8RHyyKclCYke/hIlZhXykrmmz6m6FxkEovZnQ6mZcLh5bTmihWl3C0ihni/duhGuyoQVJIZAdols9cR8OEJhkuHjzjG6d5V6VAgmyq+w131ixiK9yutO9VXuggpUQLTXUTbVfUQGRSeQufp8lix9DpPRiIfvTBUgl+86Fe6CUQ80TuIeS2KG6UPgIZS0u4hYaWUroHNRMJZMVwcM8L/8A+6SGYv3riHfSakcFuO1wsygXytz3pcph4v6sQz5+usCfO4lDqEgJrAopZCxT9TqCgXUqEI5czWNfxEQ8dOISEl8dDvnUbFRS3LmHevXaXq0l47CorZ7QSOemhW+gUinzgv4Z7TF5DvfpLiXwReocRULRiDi3aYlKHjly9nEWEpi0GXh2TWa66xV+X3eVzKJFiOY1kAAYqINiayBWbiRUWo3ss2ZSWInlOqWxIcS6BKXrqWy6AcqdLmdIaVPeEy+i0icKdzCZxzx46JeO4SBcF6/mDpy8lezKh61TOPKhOqf00iob6JNae05jXCXM4pJNHXui9dQbhVcFR2TLLt1KpU6hYYuHUWIsGVUAo6t/BQRUib0tnkKp6k0boeiIUiNi1byEodTSPWHkqkKUrJi4h/ExACnUAtSJFRKjErdSiQyGAhJbLYCGTwQsFCO0unSFHerevnhJev35rW/iFPHz1RePCpqyFi6o1DNevmxFbzp6BXehk2ru7B3Fr18nYO9q618/YMmvXydg72Vau7sHcGAredXQK71sbV49AzQ168egdymXa8sWegZi9r18nYOxja8vedAwH6ryZFrzHoHYktev8IYWr/AO1DG1d56AwtxHUf7sbf5j2q1a/wDmP92Vb/MexWrC3FHUcvNr+nuPZ5si3q7jmdWvy6j3DVr8uo5r1Y29vUc06sLcO45nVr+nuPf5tf1dxy82v6e49/mxtw7jmNWFvd1HNWrX59RzRq1i6jb1kV8RsJFZAONQaaUJpU599L5kVv4aMdJrjJNN3DpZl88glcgjpa/Ul7Dg7gik+9h3/AqozOhNLYRaImAUt5K5k7QtEvpBKCtf0SaS1+tDpL9DxCFGPdAJMrehaIhLt2p0pUx2eU7cqhHqFRUyoXTCBdOn1IqAUneQwcOKQyB48qCkxTl26hJvK37xUFNJY8W6fQ6It25fiK2dbTYBLqMQ4VMKOUilsNEoozTWj6X4hXNIaLRb9O6/g/eVoj5atZmcgf8A+Umjh09CVKNahvWmrwd9YFQr/hf6gyqFbApXUtBCnZF4UEpqNZ5SK60rqUUKqUE1gEbJJ/BTJ87ozOtpND6O09k61gy6f0fpJOIaRPn80cLUiHeR0liZk4nEFMilD8v4Kp4kipJ9m3YHKwiDldIKN0o2u0pmzoIdzebPIakcVQyQUbfTF0h1Hpo7DogI+fzKSrfLgJtN38BEPrYchJVWoms2qIUsgVpSVHuIFdVySSkWBheaxclJWT5AVk+QtqxqDUe2dbM6PxFL6f0liEpkUhglpdoLhCloip7MZutJgpJRiXOQ/ezSlEX/AJCBhkvg7S/i1w7hb0JeQdKNr9MISDebRdo0JDPUQ0U4IevoWhlEEvqoiX7OZOVl24h3ocvqSRSTOpwXUSXMI4k1EqIy1/PaVUmjBCyOWOt4Olrdp/zUdFxJQUQMqlu+YyZTCIP0RwhNrxcS/cuVw0jg4lzNKWzcupjTilCnQdv5zOC63A7dq9yl4JVJ0hUFJoNe4hDn3kW8QmLin+/fgnqOadfnje1+XUc16sbe3qOadWFuHcczq1/T3Hv82v6u45ebX9Pce/zY24dxzGrC3u6jmrVr8+o5o1a/PqPcdWXb1dxzGrX9PcezzY24r6jl5sm3+Y9idWv/AJj/AHYW/wAx7U6sbcT1H+7Cw3joY3/g8K2uP4GVf/8Aj8CtWF97v7PS3FseXs8DIv5v4ep1bHD7PxJYX4fZ6rY39P2eqdWTYbuzUtjy9njbHm7NGx5ezxsqw3dmoYX9X2eqtWN+P2eqGxx+z8SmFRUkhaqiEVEEiqsVkjeAJqJSd03Ws+o/OEogZ1Ah7E0bpI6cBcbIpip3Ule6ChUTLoqoOpnBF4l1FuRWvjCVCPofTOWGAmEK8D2FiEu1vYKcS94sbk3lMSj6uLhXm8kKhHRMZCPSt1EJHujXHbO9psmEfAl6+mFHp/Bu0OaS0HpCIdTmGpHRaZlBXBxbreqmEBbL55CgQcxdKRuvUhzSWFVSrZ7N4xcPRHajIpdEuqOTMqSp65k1IXaw+RRWlyHLt6t9LZg+S7jHTp9Gy2IXBu1gEVCs1qRVURuCoKFe8QoXbj1B9y9rrdkgM9iYXfTFQzyDi4R66d+8euI2FjnD+CfO0AoUtSIt05I3FpWiv3ieXeT7G0zi0vQ4pR7IUHMoZ4Uu9x+t9tGnpexLmKckwD4vFRkG+WHMS+P0d5vp6SqpYUmwC3+YWgCwlVVgrFRIZ3QHZFIUTJcK+dppnTaZFbmguzeEeAKVE0nmzioRM391XEQVFJW8fTmOLsOCHQee8TFyaiaIqklOaSuIZ7T/AGpT+Dh10ppe/doQ9MtgHiv/AON0QhI1C4mV0ZlhRLYVdb1/9LUslpZRyjEoe0ipHSGL+iyaTSxKkP4+su3z56XyimGdQkKnceTGPel24hoQ+7QBUgKiZ1PXkNP9qFIod0mkVIBChcJLIQoS+FGaMe/U8fQkjh3iiIxY909nEY7+kRIDt1DunaE1rPKneUitdQJF9ldmNlZvGLW19PR4k6sL8Ps9Vsb+n7PVOrJsN3ZqWx5ezxtjzdmjY8vZ42VYbuzUML+r7PVWrG/H7PVDY4/Z+JTLv5j9nqNWx5ezwMb73n2elmLJv/8Ax+BOrXH8DC/8HhQxsN56GFhvGX92Nh+XarVrj8v7sqw/LsVqwsN6MsvNrjy6dnmyLDzaZnVrjhl3DVrjhlmvVjYenLNOrCw3aZnVrjy6d/m1x5tMvNrjy6d/mxsN2mY1YWHqyzVq1xxyzRq1xxy7jqxsNizlmNWrrNmBUMEm2ququ2om8gAYWRdHqVwW7GON95I5/BIQ6nFH5huJU7iJbEABS0rUQYuEUowsQ4KkPEBZKw6lNLIV7GSmLUsyOlMvg37ySTl2FfUu0P0oUiXzV263PfyOPP0uIAexMI++joKBNKMUvkEupLRmdQz+BnUgnEE6mMrmMFEpqfOIqAe7zp4iup4h7uh84W6dvna0+6qaYU59lN4/pBKeF7HbEp7NXCJ/KodAevAnZ9SePUqDnkGLA4o7PY+GiwHwcSuZQ/uhCvpnIp5BTGSzqURK4ObyKdy6Lk87lMUFLQ8hplKo5zDR0vekIKUuIh0tfugVojYt09C0SCXT6kc+nELLELklFpZMJjOaQ/uuHjnz2KMmopK4mKjX8K6i5g+XEqlcmcIcPYlan7xwVjeEupl7QBmWx3Zi8DuMl9DoUoh9r1MoUuAty6fOFu1w+z2RvkLC37+NRFU6i1bolMqlKx7xpZs/2YUPk1C6HSZ2kQknlUJuOHj5A44+ZxG8uPnE0fCyKmcwfxEyiTV7x/WAGcUS2cyR/O5qXjpcxiohS3Mmo1BPUEvY2kkzDtTmDcu3SlvHUE4342IO67cOlKKylcQ5dppDT2dOIcUgprFQ7l3FxDp2CEyqSIQB+66PQ7xK/dQjjdXFvN+JjVvnyq0kBKgDWbTX04Vm6oAACxkWHm0zOrXHDLuGrXHDLNerGw9OWadWFhu0zOrXHl07/NrjzaZebXHl07/NjYbtMxqwsPVlmrVrjjlmjVrjjl3HVl2Hm0zGrXHl07PNjYb15ZebJsPy7E6tcfl/dhYfl2p1Y2G85f3YcKbxipjwJ9Vdq25U+qmVwI/EvsUw4E3u8VZNyJ5c1djI4Ec3cvMtyJwxV3JYcCcMVZrY8COnqXmlk8Kbs1ZluRPLmrvbkTzZqybkTy5q72VwpuzVmGHAjq6l5qY8CccVZobkTjiruUy+BHMepeYb/TRy5q7GVW6d2lVd9tVqQfI3NG0dpTJJdP5JM3C3EdLZjDKiYd67Nz128SN9xFOSd50/dlD50pCFuXiVpSRG0q2Suo2mtFEH38VRneX/AIskTgLUtRg3qt8T+Wuk7gLn3RngdhT17EPnSXoZTl85eOn7pb0P4eJdPHD+GiN5ILl64fpQ/cPXQC0hBdos3yNFONqdDoWNnTiFVCymnEjfLktPJHV/orgaQQSTFRsBDvUu3ipROHExkTxaUfSoQgAKcTyhlExSCn6Fj321LaF9FpRTjcG8A6kkUuHh5NRh1uLU6WiikqlJfIUffl8viC3z0uQhVfvXy1q92TxEhTx7xKUBXYs+8GQaFnc9dR2zvZu9Do/vyaQi0UppDClAXXRiTxYSiChYhJ3P35NnPvHSlF65h4jcrELRagtHoCUQLgB6/iUI95MpvFl3U/mM8mSwYiZzN8QVLioha1psQgodpSkWO0C13cVDpbkTy5q7GRwI5u5eZbkThiruSw4E4YqzWx4EdPUvNLJ4U3ZqzLcieXNXe3InmzVk3InlzV3srhTdmrMMOBHV1LzUx4E44qzQ3InHFXcpl8COY9S8w3InlzV2MeBN7zFWTJ4EfiX2JblT6qYcCfVXahjwpvOKmHmPs05+TH/209q9Gv8A+WP7Mv8A9pPYrRh5u/sk5WYY/Nv+D+Gns8mR8Yq+qTmdLW9Ps09ydGH3fZpzXoxz4fsk5owqZPl/DT3HRv8Ag/hp7/JtN/8Ahpyzqb/g/hp7/JleX8NPcNGGfF9knNeFTH7/ALNOaNG9fs09ytGX8Zr+qTmNLG/4P4aezyY+bz7JOVuGHyZP3/Zp7E6Zf3aooJSb07uJOFlYI5qxdfgy5rEQK6K0yX74JpbJIdy6iImt2kJTPZcvcg586JDtVb8uoxKXaQ4i3KFPEPIyPTJntOKNuCpQnlFHLyNeuYVFXujMZCXQmkGAhSy8VBJinLgBW49eptDt/RahUTJpCQEPaYUzcRUjkTkO1l0t5LkRUI7m84epNqEOYNLkhJAiwOJoOkFK0vtpFOHKkRImk6hkCQyiKS7V7t7IaNPS+gkPXO+v3MymRjJmEAK+kpVc6dlyokAApF9YuKiQa/IkhgN0pIFVqQSBUaxaLdMbbKmArtrd2e7TllU3MOX+Gntqy/V7ItFiv4Sczpb5NzDDoSeoaMLRh0JzXoxNfb9knNOG7ow4hd2JzOjWkDhxdp7/ACbTfv8Adpyzqb/g/hp7/JleX8NPcNGGfF9knNeFTH7/ALNOaNG9fs09ytGX8Zr+qTmNLG/4P4aezyY+bz7JOVuGHyZH/tJ7E6Nf/wAsf2Yf+2ntRox8z9mnPyYX3jEsb/U9qtWx9Syr/U9itWF96MTl5tjy5ns82RfzZnM6tjhie4atjhic16sb+nE5p1YX3ZnM6tjy5nv82x5szl5tjy5nv82N92ZzGrC/qxOatWxxxOaNWxxxPcdWXfzZnMatjy5ns82N968Tl5sm/wBT2J1bH1LCusjKsmvhT4h8ix3hWOKwCokGyrePQBXvJqtstsZO4Ako4UAV7iLuVBNQOFtYGAwNu9XVbWqs17qsRug/ckDRsfUsazVWQkcRvKVVC9q0u36wFpSS7Qt4EkAWK3Co2haVcIUNw1kg2ED6PFcSazXDv6geEVKKRViDlUDWqsEBO+7fIttK3L5KQaz1rAQPvUPJusgDerSFK4d4CsJSd5VtnAFkEisBkLQ5fqSs1BTt0tQqG9aqomoV8OJB5gACRX7mJqrSBXDvicDeCRZURXXu11cQrZCXiXqFKu94kotrqSAFK3lFZsSHYXaLasSb6hga+vCpRDCqurezOXm2PLme/wA2N92ZzGrC/qxOatWxxxOaNWxxxPcdWXfzZnMatjy5ns82N968Tl5sm/1PYnVsfUsL/U9qdWN95xLCwXjBjYPTwqa4ejKsHp4FMLBejDRrhy5eBkWDmy1LXDDDxBrhhhqtjYOnDVLCwXZalrhy5eNrhzZaMOEGtP8A/ryYJKOJaSUJxUARWRZdhWahXYyVh3WkgkntG+RxEpG7UN4q3qgmoVmotWpAFYG7UpJDxSingd11b6qragK93iqqDJSEVVhalEiqoJWUEWpFZC/IFPEkmupid0EFdpqJIrIAsSkk1n0FudSkh1WEConHlwG7j5hlHdAAUoHGolJrCilJ3auG05m6qopIdV81mIqSAcLqwba92q2uq0Wua1V1bqAVkDeKd9Q3RuoBACnhIdhSkjeO8K01pQmtNd4OCLAat1VhtKFKSLASCWIAFoUasDkAd01kkiw1Cqs15prdisbte9fgAAQCkmsW8QY7rret3bO6o2E7tSQRWkEmsPBuKCbSAdxNpNxBsrqFwvHWOioms4lAqQogKUUVrFSQTuk1IqCiBUSCFGtBTbaZxF7TdtezqktCaKUuNEo7ZhtOpTQyVQ8e9g383EXP6OSaYQUqpL/m4Ry5W7mKULVApEGh+6SAtO2yK207dfaXew2ztFAHNH5RQ/bvtEolBoe0nhqSrmT6Oey2cCLjK0SuGDhwl+5g3JK3iIcPitSn1K/ZB9sD2kaOU6lLj38DQ7aVtZntL5BSUwrxcTByf/EM0fqmcrMStBdOHU5TOKNxbxZdTGEcIW8iUzP2XfajlbuQ7c5FETmXymevpZD0fe0qm1GFxv8AiuiFJ5LCBErgKdSSGhERcEqSunEDSCXiNiHTlz9FW9idrvtVUS2r7eaE7R6MyigsEmW0R2uUvk1Ao+TrpZJ6LPZYqhMPHokEAX0HPX8W+mErhYSYv4yHcriImIdF+7fUf2w7SPaG9raBptSSllPpUYijHtA0zlspgYOjNK5jJ5UYKSvXsVAqAcQaA+dPw9+lPy8DxaRUU0F9lynG2KlW3XY1tFn9CpbLRTyOippOhR3aTFxEio1N5FFxz6YxkmpFR6lbqJlEygoKIewc9h3Bfqdwbx66XDkVBISN0BIqSAF1cG8kHcyNVdddpNZNoHNiBk1w5cvGxsF2WoYWDqw1U1wxw1Q1wxw8RZdg5stQ1w5cvAxsF68NGTYPTwJa4ejCwenhSxsF5wYcBvGBz+JjwH0V2r8Tch9D/wBzK+r+SuxXiYfVm93grL4m5Dy5K7PiZH1fVkrM+JuQ4YK7k+JhwHDBWa/Ex+r7cFZp8TJ4Ddkcz4m5Dy5K7/ibkPNkrL4mR9UVDEAlKjUSd1NtdagCLCKtW9nGgsv2j+z+92M+0htdlkp2bSLYNQSJoVtYpXJaN7SqGQ8z2aU/pttlmO0SSUMmNK4GlUio3FbQJBCwsldwcZMo95KoIQkS5iaZe1BQX21djeyKN2YSiebTHfsb+z3swU/l0vojRWFXM5jKn+3faHCzec7ZKfwEjhH0wm0HOqI0S2f0oj4GLhKO0XgHMY4QuUTvYBT32bfY3c0EjI/Zltr9qKdURjNsG0rattQk0ulMwi07I9hW/LqG7HKPJo1SOWR9IZvSmaUsmsZP4+EcUGl8FKoN/MF0e/Zj/tFNqMD7Qsm2zy2NjNkm1gyyEh5i6mcVIp1SOhtKpHOYeVyWYzOhdNIOQTajE8oZSOGi5lQul8OhcvjVy51FPV079pvaVLoukxkr2Do3QCgEqixK5ntG2iz51Ev5BRSHnK3EY6kEAiEgo2c0ln76FiBKKNyuZxkHBTWapl8pjqJ7ftqv7S+l/sbbVNqFE5ZtJoV7Pfs17Ddmh2O7GpRSiUon9FKG07nlNZdSLattHnqJVHy57TGNi6VStzCRpjoKSysGBWF0r/ZU/tMnFHZxt3go6dS3ZJtvotJoOQOKXzKVUZNOZfRqkcLKnEskc4ltPdnjl7TjZ1TKDlklmcZAwz+R0mlK6SOIp8H+0LZNtd9nigHs0bTaRTHZ5QmkGzzZzGx/tJ0MmoofM5u+c0mmG06ZUmoPM3z5xLJrFyyk9E5LLX8si3UM6fy9xwRi6F7WtlntW7HvZChH2zeiNJ9m/s2URezCkG1OnyF0ZlsfLZjtq9pyOkbmXO9otOkhEW/lFH6MQdA5LFzWFgp0+mCXcbMV7dtj3tRPnc59oL2Wp1RSXzWmq5TASKd01oRS8T+Dl0XTWSSh3CyOGpxRik1E6S0YnkVIoNxK52mEg5tDISYl7VA/so/Y0prI9gkVQPZzNdqntV+1NMaHSnaJTai8phpJRucwmzPYNQ2k4e0INKH8HTei7ibU4pjAz+Gl0VM4oQFHC/o7Erj9lG1ChHty0n9rH2ftsk7m1FoyQe1Zsw2aTyZ0Ip3KXEFN1yeYzrZxRigT+Ko9PpO8jIyRzGjb2Ai4CKls3lcVAPHTiEexHtEe1/8AtTtoew2Yiiq3NN6LUN9lmj06g6G0W2diSSuTUPoXIZhTCIeUgpbtE2pUzmW8/iZvG/umWRc2k8JDRkHLoV8XMr9rSkPtsUp/Z57KNrxm899njYD7LezPZfSulso2dwE0jpNIKabZNq21OWUindKqS0pXKnsxfUdoiKKySGgIiHWguX7+p1RP9nZ+01prR7b3s+2uTGikm2N+1HL6Jw9EZ+5/9Q4yNlWzakU4dSeBgpXO6NUmpHAroXS2RzOGFJdndJImCjjP55I30MqJpcl6kJeIoxSMVIrrSRJJighO9WTaFbqympQqIBArPtRWJsGxzAg1fRadcxB4lE1nessIyrKd5J3t83KUAeNYrVUQTZwhJO5edyvibY3TyibpMFNaS0j9nGnMemE3HL5/OYymJoLOCgOUoV76cyeA91FAkriRFTD3rxbuKLtHtEp3TWJfQJACK01h5tVoasj4g7TucO6K7SDcaJUf2XexDTrbxQqVT/aPES7aDItsOzqiENPoyLphOYyYw8JRmkSv30EQE1L6VPFugfflytcPvvd9Jh9un7QWV032I04obHUdlGxXZbOKKvXOzPZ7EyeEi0Uane0GksYpdJn03h5nFTWYyaOh5fD0TXP49E0fxEO7cw0IlD1zuLdPXYW7W6Wl65WhfGh46euyXT108QUvXb10VO1oWlSFKSa2A3Oq+pWXxNyHlyV3/EyuA3ZHMeJh9X3YKzV4mPAccFZo8TchxwV3K8TL+r6jgrMeJuQ8uSuz4mP1ZveYKy+Jk/V/JXYnxNyH0P8A3MOA+iu1HiY8BvOBz+JhdeP1ysbv0lY7Ww9f/Fl2j5dih2sLr3fyFnS2HJV/JV2sgVioLrHnWfC2GH/Uk9rAWYfmvw6liaxXw5Zo8LJuu/qfC2HJV/PX2tVZVv1/L4WGW4RZlv14C22o/c37GVxvOkP0e09GxgeHf96EOdr3s5AhAGa1oXyle8jdSpKFvA82yKeOnaoU7MNpyXo3AUPXP+Ep/wC8QoAHedlJWNw2Wq3Ra22OtIt9rynwdZh2nZrspQhAKRyh2dxCE8LtHAkJRYP2VKHVSN+hOzl8+P8AF+jR3tFWnNYQC7Cr6iUnhrDbCKVyR1FPqPUP2+xcvpO7hyoOHUbTnZpSWQUTiZglKFpcw8RNnK5KiNegO3T+bIhuMxe4fZs2y0FmEJMqNU52M7PpjCPoXcP0KZy+jMBJqQyaISjfTDzOQUil02lEwhQQ8hIyFeungDzfA9g6juzFyYmktDaGbJdqG1SJgFP1qkFHtmsp2qUjm03nb2HH+UcvaLzGh0ghUxawX8TSaWIJMPEqB2PuiN8v/aGmW46NqFhxsY2jXiohX1VwPdoCPZ1iAK0P9h+x5YNoq95QGjhOGFZxI9W/bAuXTsO0Jn8rh0B2AgOg49onb3yg/YuS9LwQ1iCjfcughKmoh+1X2IUIku3bZ37Sczo9sXpZsMllJJfLds9M6a08lVHKBTnZvs1o7FvzNaTx1JImR0eppRmeUchY2CofMJLFIpouCoy8jI1vZhoTti9l3aL7C/sT7AdpX/rBtRfbcaW7PZl7QW3al8uhnMFL9nVC6AbL5/S+T0NoiHCZjCTWm1JKTuXs3lU2jVwMjh37mFMftkNE4NRl9Bqd7FKZ0hlcGFiGh6ESKmkJL42txDe6ql8ofTKXxcYSkuRLpbWHYKEKb2QjR6Ng38Zs02fDYpTKXOA595R+m2zGYRUkjpZFuXZL2FfR0uTKp1COF+7+ky6YuI9aN14ha/2TOx7Z1CGZ7aKf0pRJYOBgQ+Eyc0biNtWz6eQEzizCOVxEPJ5LBUY2gz95FPf8vCOpDHPt9xurWumr0KKnbuilJN95aVLLiSzMEpUCrfQN1RBFV6bKy3tQwxW5DxbjYw/dIX/qPYdbinKA9BTWNzeWpCQd0lTo3iomIjoqJcQMFCOH8bGx8Y+cwsHAQUO6eREVGRUVEFLiGg4Vy7U8fvny0odO0la6kitphtToWl5OfZ39nCfURfTKmaXa1ySajZi6fPqFyOXx/u0OY+Y0vp6uPpZ9AqdPYOh/0WYPHa3cwcrX7QJerKlKgqAhStwEKKtrFChUa812XHmwbZxunlpptcQpD1J92jd2k0iUUoBFXugkJXZWj3xJB3wQNhE2eQkGvabFzuncignDhz76ezihcRJIdP0B7DwoEfNYNdL38hgZHBLKnK5xN3sNClMQ/eA7EKP0tcxUNSmSbINm0ppHCRqnjyMhZ9AUQlENN4WKW+HvVxMNHO3zh+XnGHiFIValqrKgv+lXa2HJV/PX2sq67+o8LA1isb35r8LEWY/mjw6BsMf+pR7WWKxUVkm7MeFsOSr+SrtY3XvPmLelkGsWXfgSO1sPX/xYXfpKB2sbrz+uVhaLxh/uxtHp4VatePT/AHZVo9PArVhaL0YaebXjly8HmyLRzZanVrxhh4hq14ww1XqxtHThqnVhaLstTq145cvH5teObLTzZ3vJK0AVqQlSkb6Qu1B3SawRWaqiCQAQbGo9tg21/tJNtCHmy6lU0pDsBohRPYZsXo9R7YrDxFIpbSOXw0lMHDOIylE3ho6SSNcfSSlT2PmU3dyiWw8UsuYJ0kUe9np9+0d2lSLaC/VSmU7X/aMk/s9bDxTna9QKkMPPIFzQt1RRctXQ7ZwuFgpnBwkTSuhkLC0pmQliIl5HwkQ/W9CpXQP269qO0j2fZtNKRUnpl7PFLNjmyuAo7SOmk4kMqkMupXA04gERdN6NR0ocSmWriYCXR65bO3UA4cRaKlqqkPtl0z/aj+0FDe0JQWKdL2W0vkGwrYRJZdsvk0qmM7f0Zo3RijkLAGTv5PK4CfTOAm0FOHEyRSkxsdHTh59NjX6zEezD7WE6PtNS6lNBHdDNrNMaSUVkFBI7aRHJB36Woo7QtxBSKhk+RGohJrIn1GUODRyNgYeJcKeP7FUoox7Cv7VzaVse2DUsm8VP17I9rPs7bNfaDFGprHqC4+aUZmFK5lLZZB0ijFByuOnn7jhDO30JBvZ3BRS0xEQ/2p7Xl0r2k7e/am27RKIrbd7U23iaQFINr1OhCl0qBozLv3DLZRR3Z7s8kBdOHUg2d0Jl0HR2BhYOBgq4txAQvuXr7aZ7e9OKGbAJJGwc22YezjINhOzaNo9Qecf4V/w5P5pMaYxMXBUpppMZ+/fx8yRFT1ZMiczGJlMqQIB4orpr7PML+0mpbSXaY8XRSS7D/aKpB7NWx2NpHsQ2eUagpJAP6JOqGFJo7tDmMygYCZwSaU0yMRHy2Gj4RMI6W+lrl6YzblsZ/ahbWZfP6cUlk8026y+b7AtlE4lu26jril8TS+f0bpMuaxUcuWRc7fzKbQkJS6UuYWkFFxOI+IkSw8eLSvZ/sr9izarSqC9s72bqFUdPtE0/iaQRj/2bPZZ2bOJ1PZzQkxEbK4hVLnPtOTGkUwTBSahuymNgIZ/J1xs52hxMkjJHAPo6d092UftS5j7RERRCUTCdJoJEz+mkHS2ewcng1xswl1H5dtVRT+jE9nZg3T1cDATaZQpjH7pMNBxW+/SBTGd+0/RejFLKTyan9PfZt2pP/wDD7iCoptdkcPRej81XMZrRSHrlMsipnR6m6KO0xlkAh1KRN4OLioB06cPHbl1Temv7ND9oztN9lKgm0V+iIpJsV2i7IaIe0Xs+drh/folyIWBpPNJKiYRNH4J6JVRydzJyaWQsrR9Fm9K6RVIQKR+2Ht02xbR/bJ9tGllHUURfe0Ltil1GZGjZ7Q0Onpf0H2EbLaHSmV0L2QUPjn8RFLj4OSQjycTIRESZlNowxkb7+GoPsp9oGN2ASuYQ87l1OI6V7PKO02nFLZHO4BECJPDTCkEQ7e0bEMn6Q8ex0rQmMiRFKdF4hLh2yqUbFfbrpTs8nj6XLlcdGyfZRK3iJzAB45fuIWdwEbSWMlMwcQ63W8gPZelZXWeQBARIPam9ufbxtfoG9eIE02b0GkVB9hFEqQuHT8RDuCpK+oDLXE/nMuKwlL6FVMHSnwQN9alALMq2c7JqFyOgtC5K63ZdR6j8CIWEdvlqBfRkQ8K1xMdGvyAp/FRj17Ev11l68Vc09or/APq2mezPYfN3Eg3dkUj2R0Umbp5HyRQijMZ5TCMmLikU9S9mjmFmLmTLeQsug4yGh4p1vPXDoJjKL7IP2gM8obRSPjHsziZA62I0ZpFLHc0i0oRHzKBhKVzucpg4uOCHK1KQtDpC3VjviUhUFt827bQto3tWbcpU7cu5DTjbI9lETJqHlyolyug2zySQMBRijy3BWpbl8l3EvXL2p+h4h8hL1Kt1FQNaqiSTWpVZNe8ccBZXYKxfgOLI5ebXjly8fmxtF2Wo1YWjqw1Vq14xw1Rq14xw8R1Zdo5stRq145cvB5sbRevDTzZNo9PAnVrx6f7sLR6eFOrG0XnD/dhau8fq5jav9JXo16/19zLtefpCtMmFry93+VmHo16+T5bnlkyLXlW+KvOs6NYV4f8AUnRhavD816efzY2vK+HzvRoybV3f1OjXr5Plv+Wfza9dW/8AOrya9fJ8t/yz+bKtXd/UaMLXlfF53r0Y2rx/NGnk1pXj/wBStGXa8q3zX51i+xr18ny3PLJja8veflbh6si15+kJ0ya9f6+5kKBVvIWh4nfFaSpHu1BKrOVVQBItAtSQQCPaH9tz2Jtha/bb9nP2u5zEUh2t7E5JPHcv2nSWezikD+lcW4XDPyI4xckpXMJ5H0Z2gypM/cxEipDESOlkgiImDgIpE52Z7D/2cs99gOPpJL30gn3tO+2ptKovOYXZjLZxBRMFOKQbNdguzmCFJtqNOJdCv1RVEHE8mNEKFuJuiEiKQriJeYuXv9nXsxbHjNJlRmhUPMZjOKY0hXDv6V7R6c0kjH02pptFpfFQu67iKQ0snUVExy3blRhZVApgZPB7sHAQ7pF6/wBfcy7Xn6QrTJha8vd/lZh6Nevk+W55ZMi15VvirzrOjWFeH/UnRhavD816efzY2vK+HzvRoybV3f1OjXr5Plv+Wfza9dW/86vJr18ny3/LP5sq1d39RowteV8XnevRjavH80aeTWleP/UrRl2vKt81+dYvsa9fJ8tzyyY2vL3n5W4erItefpCdMmvX+vuYWr/SUaMbV3n9XMLrxixu9fCrVsPVlXevgVqwuvRjp5thy5+DzZF3NnqdWwwx8Q1bDDHVerG7px1Tqwuuz1OrYcufj82w5s9PNsOXPx+bG67PUasLurHVWrYY46o1bDHHxHVl3c2eo1bDlz8HmxuvXjp5sm718CdWw9WF3r4U6saw7KalJKVWgius2V1G71qwDFQCCpVQrUEE3AWkJH5kVVWViskAprwwA4VWNh6/7sq718CtWF16MdPNsOXPwebIu5s9Tq2GGPiGrYYY6r1Y3dOOqdWF12ep1bDlz8fm2HNnp5thy5+PzY3XZ6jVhd1Y6q1bDHHVGrYY4+I6su7mz1GrYcufg82N168dPNk3evgTq2Hqwu9fCnVjdecWF94wLG/0ParRsfQsq/0PYrRhfejA5eTY8uR7PJkX82RzOjY4YHuGjY4YHNejG/pwOadGF92RzOjY8uR7/JsebI5eTY8uR7/Jjfdkcxowv6sDmrRsccDmjRsccD3HRl382RzGjY8uR7PJjfevA5eTJv8AQ9idGx9Cwv8AQ9qdGN/Vgcjowv6cDkNGN/oe1WjY+hZV/oexWjC+9GBy8mx5cj2eTIv5sjmdGxwwPcNGxwwOa9GN/Tgc06ML7sjmdGx5cj3+TY82Ry8mx5cj3+TG+7I5jRhf1YHNWjY44HNGjY44HuOjLv5sjmNGx5cj2eTG+9eBy8mTf6HsTo2PoWF/oe1OjG+84FhYbxl/djYfl2q1a4/L+7KsPy7FasLDejLLza48unZ5siw82mZ1a44Zdw1a44ZZr1Y2HpyzTqwsN2mZ1a48unf5tcebTLza48unf5sbDdpmNWFh6ss1atcccs0atcccu46suw82mY1a48unZ5sbDevLLzZNh+XYnVrj8v7sLD8u1OrGw9WWR1YWHpyyGrGw/LtVq1x+X92VYfl2K1YWG9GWXm1x5dOzzZFh5tMzq1xwy7hq1xwyzXqxsPTlmnVhYbtMzq1x5dO/za482mXm1x5dO/zY2G7TMasLD1ZZq1a445Zo1a445dx1Zdh5tMxq1x5dOzzY2G9eWXmybD8uxOrXH5f3YWH5dqdWNhvOX92TYi8YPc2NiPR72La5Ho8ZfCjDB92K/Vv5MOFF7rB7in9f0a5HJk97P1p9zI4Uc4wfZn7vS1rkYYPe9OTCxGGD3Nf3frzY8KOnB9mj72TYi7J73Ka5HJk97/1p97XI58nuXo1yOTJ73/rT72VYi7J73JYcKOrB9mv72NiMcHuaPu/Xk1yMcHverNl8KOc4Psx93ra1yOTJ72frT7mPCi97g9wT+v6sjhRjg+7E/qz8muR6PGFiPR72IZViOvB7kfvZNiOjB7kPvY2I9HvYtrkejxl8KMMH3Yr9W/kw4UXusHuKf1/RrkcmT3s/Wn3MjhRzjB9mfu9LWuRhg9705MLEYYPc1/d+vNjwo6cH2aPvZNiLsnvcprkcmT3v/Wn3tcjnye5ejXI5Mnvf+tPvZViLsnvclhwo6sH2a/vY2Ixwe5o+79eTXIxwe96s2Xwo5zg+zH3etrXI5MnvZ+tPuY8KL3uD3BP6/qyOFGOD7sT+rPya5Ho8YWI9HvYhlWIvOD3NhxKvHSljxK/CntW3Mr0SyuNf4U9itWHGq930pytxbmVy9qexkca+btTmdW5lYdKe5LDiVh0pzWx419PSnNOrJ4lXdqcy3Mrl7U97cyubtTk3Mrl7U97K4lXdqcww419XSnNWrHiVj0pzQ3MrHpT3KZfGvmPSnMatzK5e1PYx41XvOlOVmLJ41/hT2J1bmV6JYcSvwp7UMriV19KciyeJXR0pyDHiV+FPatuZXollca/wp7FasONV7vpTlbi3Mrl7U9jI4183anM6tzKw6U9yWHErDpTmtjxr6elOadWTxKu7U5luZXL2p725lc3anJuZXL2p72VxKu7U5hhxr6ulOatWPErHpTmhuZWPSnuUy+NfMelOY1bmVy9qexjxqvedKcrMWTxr/CnsTq3Mr0Sw4lfhT2oY8Srz0pYX3jEsb/U9qtWx9Syr/U9itWF96MTl5tjy5ns82RfzZnM6tjhie4atjhic16sb+nE5p1YX3ZnM6tjy5nv82x5szl5tjy5nv82N92ZzGrC/qxOatWxxxOaNWxxxPcdWXfzZnMatjy5ns82N968Tl5sm/wBT2J1bH1LC/wBT2p1Y39WJyOrC/pxOQ1Y3+p7Vatj6llX+p7FasL70YnLzbHlzPZ5si/mzOZ1bHDE9w1bHDE5r1Y39OJzTqwvuzOZ1bHlzPf5tjzZnLzbHlzPf5sb7szmNWF/Vic1atjjic0atjjie46su/mzOY1bHlzPZ5sb714nLzZN/qexOrY+pYX+p7U6sb7ziW//EACwRAAEEAgIBAwMCBwAAAAAAAAMBAgQFBhEAByESMDETFEAiQRUWIzNQYGH/2gAIAQIBAQgA/wA0qonhf31xXsam3EuqcW/qrkuPIm1Fd0x1RAsMEibZ+yrxFRfKe+53pRXLl2b0OICUljddzZXdvLCq0rc/yNESXH6uyMyf1WdUXj/Vt3VeSD/UNaLOqJVNEp+3M5oCDFcYd2JS5kJRRvf+dtXJJEnL8+OJanHKajCMVftflTve5inK3M45rRAAY4RUQjPPwthR1FmJw5j0fhGdAJDCVDMERvvWBHhhyzM64akzLHFNve3KnlUTmdXn0XtpwIRiDRR4hfDc1a07k0uuI7wnO1xOHfwjtxcjj47RnJ71z5q7JOdYeMmfxPhOOXTXLyzlPsJc2fyK1qs8w3fazY0pkM33MUBuKq75225Vt4acxFd4vQr75RoZjwOxd6UmdPhOVvoc5vLZ3oq7Ry+d8i/3F4vgZeY8qLS1umrvwnYj3WWYuAypCsesrgL7zU2qc7Or3Y/nrpsevlssYMSaKaFJEeYFTCeA745YqaIvFar/ANKVAPtqquEpyDACRKXFIjsv7Fr5T2orV9Ke95/buPEz5Bj6z4fWGUDR46GciOREa/OMcLEkstBQkYquMmMVBLCeIvGN3tjOzsnFAgMpo3SWJkr6wuST/wABzUcml7RwKVi9sS/p8NzGHkQGxjyQDmAdGkfySjDkjhrqsdaBsMOWZdBxqE/1YDh1lnWQluLYEcccIAA/BnwIlrFkQJuedf22Fzf4tT4v2PGlo2DkW4xUZJTKOxYFcJ0auxLCL/sG2Swn09RApK8FdXfhnAGQJ4T5p0mCduwxVajsARlomYd0k0Jx2OVQ4kaCBsaImvhObTz7yrrnzzab1z/vNovNeFdxEYj9ouk+ZBiCY54Y9/LkQW2Mdl+ItSWzC7IlACHLJpyO37q615Ij3fXRBtX7eMZ2/qlcJ/1SoCYjdOjmjINEKRpQqJSPkDEYL1RZycwx3px0DVjteaJnFgB4JTKKql8AZTiaVfcVEXwqxxqquR0Vrmo3ihY70Lx4GPTXEjiajNDVrvro5sbbRqQkQBWPY4FBWxmIMMmBHlxywzCoq4SCYiIiIiJ/qP8A/8QAPBEAAgIABQIDBgQDBQkAAAAAAQIDEQAEEiExIkEFE1EjMmFxgZEwQEKxUqHREBQkUGIlQ0RykpOywfH/2gAIAQIBCT8A/wA6IHzOL+xA+/GHRQOSzqoHzJIx4t4bHQsh89lVNfIyg48b8LG9b57L8/8Acx4r4dKTXTHncu7b8dKyE38KvE0Ti66ZEO/p73OOF2JOwGP2P5DgV/Mgfyu/kDhxPnDGWy2Rg0PmpQCOpUZkURhqDOzDewochhiMeGo9eUIIxNOFNFLkIIDnkiMCiSL2xmfFcwhFr/emeCKiAegqzloyCKJCgisSeDwsTsWWewK22MJvsBjOeGaQaBMMlE9q6CaxP4fma30w5ifKMo250QHzCa4Nad6NHaHPwlOsS5TMSzkUBVB9AuhiFvEctVMviKeRKvfqkiDsHr11c7/B3y3iEem8pmRHG86DSXlyoSWQzQpR1M3ltXKAbn8fggn/AKaOHqGbPtkoqBmMMGXcREIT5W0ukysaSmJ9d8lErxXqnnAzEryk27FmAoFr0pwikLuBuSDd9B0KDtwo4G3F0BtgoIVGoyE6dgLYnthteQj1QzSklSJiU0ECjaim77k3fABMkZAMciSFL7tqUA8bbE4dyn8LNY+P3oYyqOW3111Lx8N+PUY1ashnskcrLqMav4YZonzmXKbr7WHXEZdRI1XRrHuywJODz7+kgXwdmBv8etcOTzcqE9mjgZ1+lj71jreOF8+D6zyMS3NjSSbAvb1O5xy5Ln0ttzXoP7JT02JjGaIjNWLB2sDe+1bi9lUaiNVCtW12f9QPB+dj0ktvZjLDctZ1ebZ/VwlVdftgNx6YAVv7jMhO+6sKJI/iA4ParwfaN4Tkg1bA1Cnazvf45onw3xAA+l5SUX9CRjb/AGYLNfvx+9/S69BjspOGZvMzRQEncRjhbO9AVt8u+KO2CUML8rsTqK1Z+mBq1xqbJ3N0b74sfC8H/gpf/HfH6vCsmTvfvQo1fQ/j+7NHIjbA7FCMME0+I5zKRhiBrkechYxuNTHsBZJPa8chjqHcNyQfQg7Edjg0BByeN1wR9vljuh/cYNezPeu64N/4VBhlJFCuTxxzjrZQuUITrKzsA3kkC7lCtejkgja8CvI8OyUXy0RKhF12oX+P2/8AdX8tsIYopJU8VyjkFQWRkTMEEULWYkAdx3GCXXNQRSs1f71kBlB53D3itMuXCLtfWEF2P4b423rGpZE94du3DVRwT7h5PxXAJ1DTQ3JJIrbA0suUi1r6MbJGHVEysXmzsxqkrfRfvNX6QLrffamfRJ4tmfFswmnqEUQDw613q/LVW3sXyCRe0aoiIP8Al9foB+Qg87xDwrVKscanXPl7VpYg25DEqHFgigRRvGZEUbpMYPMG6ZguS2UINdUbkx67ANAhe2Fphsy3dHuLrABy859rGqG4VodRYHr9OFN96IwaRSYyfia7XhdeWhppCVoHVRUXf+n51vt3FCM6AL4UAb3XA3GJiM5m5QZ3Qg+XF0kxMoBJsWA1jpJ5BrENeI+KApDqUqcvlQwEh3vUZaoEaBpUHqB2/IcGww2IYHswN2MRSHw/OZuPNJoI15PMUrTaTGE0RGXUyhgSV/USCcTLB4lEipJrBVJHVQHejd62uqbHXGylTqo7H6VzXbDUk02shytaL3C0BRFmhuKwWRlUanNW/Fl2rfT+kijv3xKJMzOpjhjjI1mQmgzAEnyweSdnIKjhikTHw2CXVmpJNi9nYZfXa9QoDbpFkHgEeXDl4xHHGlBdIAAsAV9q/JRpLBOhRlfcdQHHBUjm1Kkc3jU/hpkLLOpKjKqz9ELGtwmyktua3N8Vl80CFizOX2gzLnSAJG91FJ6rXSLGxHGGLR+X5iSAkUOggV+oEHgjex8i65rPkMhKsD5B6ANWnpOqzQv9NPwy4LwZCNw8+ee2WTSVJywQ0oZVPSqBdIYAlRQxCsOWgQIFUsS1cs7MzMzE7kk/KgAB+ThinhcEPDMiyRuDyGRwVN97GGGRnFvN4az1DmAKPlwuT7MkgG9uLDD3SviyS+YIxAuWzzQiLhnWdUKsinTw2ggg3tYk89aR1y8TEyluSJiBYHuihqNE9SEgYijgy8e0ccaLGoWhuQoUattyRZ74r5Cv7CNufh+OR9xgi6urGKrfkgcfPBH3GKockEH9jhFDG+va2utvrsefpggYj891Uv5YdE2Fb6npfXayfgLseGSZiCV2QBZ4Qyuj+WV0sEbZlPpfY0QTC8oyyyyTxjokQQrrlUo41XQoHSVJ91iDePCsxlstn3iVZ3lhl0tMyogeKJmmGpjpsqAg6moA0TWn3T2bb8WgPjibbQmkKW1AsV/lva0a9bxJJ5pIXpalpmHvChd1yRZ5NnD6EWOI7MVLagLIqv6fA4Lgw5h0idiCTGkixji76b3/AKYn8yOZ9JDMT06Vqh29K4qtucSMriYGJl1KFShpvnYgsfiRZJxINCRlgQ1azroAkdgACR/F8MamjiR6kYjq1qrhBZu1rkgDq+xTzDNmZQhcWA+YdgK9a4+YJwGOWzq5iPLNflxoi5eVJ/LD7a21EqQNJIWyu5GeEseTfJynKzBSzr50UaioxuU12pLepJwK1jVXoCBQP4osYtSRTEE7j42cMdIIYAXsRR239Rf1NVgdSADUNmIFUCRv/wDfnY0g8gd+P6YXeM2pJJ6vXn748yOQyDZQdNUOoGqJOxvYBr4FXyllXBIc6goN1xwMIakUq5V3UsDzZDcnez3vEcqxC/ZefLoomyCuqiCe3FADgYX/AAspUmGK4VFVt7MrYahqB2PcYidoojaxPK7x32JQmtrJG2xN84AUAAAAUAB+TA+w/wA//8QAJxEAAQQBBAEEAwEBAAAAAAAAAwECBAUGAAcREhMVITBAFDJQF0H/2gAIAQMBAQgA/tp7rwiqjeez58IXPkW9pUXqrLOuIqINHsd+vVeFXXKKqp9BfZFXV7k9VjrEfPnblZNamWNWxcL3IyFPKWNslmRk7yf8DyRV8mn7G5eBOw5GC7gUb/KGJnmT0stsS4xzMa3I29QfOmpojZlnnp5KPEaDHBMHVo53CdzFjgGSRJk7xVocrFHKijeMJG9nqnC3GNUd8FwLW2rW4FnMmOEL0KJhE+aS9RRzF1s+F07cAZ3tT3eul1vLmitlCxWtsSIQSEdsfnbjMXFrNP1ZpOOE533G0GVQpg6VykqKx7/mnJ2gzG62TO0WZEHrjjUp6iE97bW6PcZBb3R5ZUfGTjH7ctNd1dmODNHZQolkFvdETjf8jPXK2OlCq+j1fzuaj2uHrAJfo25NQN42uaxqPzE6xsQyWQ2uVOjHaK5qxvZ69Wvcm3RHFwjGnP1vERZ2eljMgh/HhwAp83/U4zMRMcy0dkKosRW1XXWAbiItjTWUByjLBnHgH7tUXCdVc5WphsIlbitDAMc4YoJMqRW+bKtwlmKjURGp8/CKqLrcXHfWqlsoeymbpxKxSzXnled+sFfTXJcvq4q8i7v2oxAuT5NDkFE1CeAQt6c4DX1bMVg7Y0JoEOTaSvoKiKjmuzfG5ONzxXVVt3uHEyqK2FNta6DbQjQLI+w4Qktq0GMY9BxSvBUVOeZ5XYbXddYnSWGY3Zre0ENgRtCP6MuHHnxpESXf4pb4hMZaUuCbwwrBQ1OReQCqEyZzu5AolPVU1Pj95nFm+ys66BGrYYYUX6b2MKxREyfbMEvvLpRuzyKx2Osxza9g1SVfAAKMJgQfQVeNc+3Ou2kVF547JxzpF5b30jG9+U5TQWNKcYSTKkEKS+KZasw7AEI76YakLHByvKt+VNK9rAQHqwTUnWMJeo4sMMhqCi+oVz0G8MqLatIwTQuiE0jApBdLDLa3tWlZkaHbbnRz3NbPx0TxnjluJ8Qj2IN7xp8r5B3hCBfzZPkKXQpcgTHCRhyMKhtJPlNbKRfMZjIyIsprSHbHaYjSNLo1zYHe0hByjDkpMQ1nNO5zyInH0/f3TSIiJwn93//EAD8RAAICAAUCAwQGBgkFAAAAAAECAxEABBIhMRNBBSJRFDJhkTBAQnGBoSNSYpKx4QYQFSVDUMHR8DNTVKLC/9oACAEDAQk/AP8AO7v4gj8zQwVFXdsBVc3vjOZWOtz1J4krjnU4rkY8W8NDcUc7l7+XUxn8lITVCPNQOd+Nlc4dD9zL/vgbDv2/A9/wwdxyPqHYYnHWZC0OWjKmWTjeiVVRfl1OQLsDUQQMvJldbaYly8AmlCmtDNISwBI3uMKd9waGMt4yqyDqLNKTGkqtT6xb7IwIYUBe22xGHyESD3uvncy4rbZ4vZSHGwsWfW8Zv+j4BG1rmLs0f/G4ofyO9zeFT1vWTnzMBHHvj2YF7rb0o4gz5VFBrKyyyLYPq2g3sNq4rvQwhzSRMElymbVopYTsSryiM6nreyzYcR5hR5oX0jf0QhjrHpsrc2KF/UPQ/lv+dYa8pPnUyyKsZkZIoGERZGtCA4BkIoAMeL2OQgEkShevmETMS9UC3Ys4v3rpLpVOkYklvv03MSX30othV9FugNsP08vGpfrPNSkIAbKMAPzr44OnwNNeVnzIeykruixusWjzKKarkXm72rEgkWeFMzA8MlqcvMA0MjabBZgDaX5K5NnDsy7bHf8A5YAGPDstODxIkSxT8Dd51BaQ/Egf+u2tIcpncoYIgSozMDyIz2d9FISh2bVzdEHHDxo47+8Aa/C+e/05rpxs5PoAOcAOsKZzMqT/ANxZKF+opj8ubOOWkdz6Wxs16C+B2H9WYO2WL57pG5Alr9oEFdWxO1/6oNSKEFpQkvu++7bWD2O9XiaSR4115CTMPqmOx6kXUNkwxhY9CbBNRAJvfkoC33n+VYDHjgGu3HwwN5so4JY6rcClJ9GG1Y3b+z8qSeNzFHq2s8nfmx9Pvqy0q/vLWFFtBnSD+qOrwD6E8j5YAFgHb4qCb+Nk42KxlvhYUHfA0vmMwYIje4h20xg/qbV/yyN9am+eBiV4nymaiYyIacwal60RIItJAoDj7Vb4CiHPZeLNRKOESRRsOdtQJ22vCj5/d/PCAMuVkf1OwG/5DBu/Dsqe+4MMTA7/ABP0/wBtWFdyKs18r/jthgiJ4tn8uxcqFMjwvEkZY7WzkADcluMAh6tlPKsdyp+IwCWH9HfHUi/aY5GOJNJBBJ6q6BW+sEc4OxYEHtVr8++GBtgee2O0Mn/zi7HhkSi7JoM9c/1ec+FlMgoW2BknCs0RAu3Cvem9Q42N44jykUf4pHGK/Cj6/T1r+xe1k7EfInA6cS5mHxKB7IJfUgmIAG1SFht2G2GMi5zJwzs1HZyi9QN6EPfOAD7T4Xn8vGp4MuYkZ0Bu6BQ7t2OFMb5POZjJSREeeObKnTKWA4jv3H4ft64N7j+AwNVxuNI3ZizxIAo5O7C/heE0T5Xw3LJOuxAldOqQrDZwFkUFhtq1AcYfpZbKRdbMTN7kcY3O/dgPs4d5VzHjGa8YnJ2T2WEXDZ7tSBNF2LG57/ZFL8gP4fT8jcYW58g/UIC20sOxeOwQQbVSCdWwba6uboGeUv4bLM1rD02psppNEtIdla6B204TpmzcZbVo/ZLAC64sDfnEP90eLtlos/LHHtlM+ij2lSoJ1mdhesAAb3qwxVOx0kjet+av4cnEJ/snwrMQZzP5h42ZHy/6QjLhdvNO6DzWQqoxomq0sXDBK8o6KXofk7aKTt7n4CUtmfE5j7e0Ug1Rx2A0BABayOGtQFPftFU2bYJlw4p4MvsH8x9/WeCAuy7WD9RAZWUqQdwQcLJ0ZszHMkie/lZY9BcEoBpiLAkWOL81qSZooPFoY0Qk2qTOiqrvTu7MXYM9h6OrEMc2QmhMUkDoGjV3IBzYBBPtC9nsrzaY8SifKZrxLKZzITyUZo8oFm9oi1KgTcyIFURj3bYtWIVzTCMrPKFVTPstnNMqjWIyW6OgIEBewbBBQ+JyQNDBAh1GPqAqGpCGoEmjY9PiFc5eCZmzMkt/pGdg4WAuW2ZWC99IF2TVgJGgAVQAAAK7AV2+pKHgnQxsrcUygHflfgylSDuCDvh3bKhrTNKQPZFLApCwNgqgpdb6iwG51Xh4Mt4mHCRZ+1GSnkby1mD7iR7n3dA9CO8yyZZwWGYyyB8rGHFh5JD5lhU7sQ3ehRIOJE8S8RUMkmcyRU5WAsF0CNlBDOTYkRy4UovBOJZUgEnUkzcpLiQ2GOWVW8gKa7AQCg1kixcQihhQIFBJJrlmYnUxY7kk/IbD6moeJgQyMAykHY2rWp29RhED1YybMIkdtmChvLps9tgPVaAxP4nEkrqhyqLm3jEPBIlUHVELAIsxte+JTJGGR0y8DkOXPnfqFSCF42Av1YHCJHDGAIkRQgCVtagABubofUgf3TgN+62337bY+zV7euAe21G9/hi61aNwR5vSjv8Ajx8cR+drGsDm6sfkN+NqO9Y9SuwPI5HG2H6KyEAOVY8n0XzYz4EiEf4MpHmRHG419j3td7vEgi9qMawNWpH6rBEIIqgSftaSOTQxnUzGagvVBoMWoJRkYSSMIj0wCSNR1cLZq+FJF337ivh9Nll/Su7FyigEAqlehO3mNWa8tCxiCLQmWeYOQDRCKV0NV/aoigvFaQCCNc0k0wdWTUUUOuld1Kixf7VHmgMIhTMZSCaeIqNAlePWaU2B5zVf6naMI8MitEUQgglyDRN0tVQPqd9gQkTZUx6pS+hi0qgh09SwNUo+NDCgvLnJFMdD9EqgG6NgBidKnc6RX6tRgSPQdEobo9BzwBqB+JseuFb347aif8KKtxsb/wB774Ktmss+S68R5XVLAVV6s0ADq70eGvGVEBzPtAGbi1jpaEMprqNQD6AhIVeR67HVpdvP2O/0vcEfMYkOiD/p0qgruGJurJY84k880Qhc6V3SgCOO4ABw4aNqJR40cWBWqmB3O11V0oN6RTW4IIJG3btxuR+ZGHRkzTBpl6UQvcbWF7HcVVXhoJ8suiTRIwpCBRVhYYDcihZYAcnhQsUjljHQKi99I1KRQ+4WKB7gsCyVotVIXTxtVbdtsSoXUVrMEBf94x3xx6dqw5OaDBhO3mewbB81g0fW8SrqcU7LFGjsNuXRQ3IF7798Ekk2SfqZbcVydhtx8h/n/wD/2Q==;" vertex="1" parent="1">
          <mxGeometry x="355" y="70" width="93.33" height="70" as="geometry" />
        </mxCell>
        <mxCell id="UQZVPZunHJjyM63au8Hr-33" style="edgeStyle=orthogonalEdgeStyle;rounded=0;orthogonalLoop=1;jettySize=auto;html=1;exitX=1;exitY=0.25;exitDx=0;exitDy=0;entryX=1;entryY=0;entryDx=0;entryDy=0;" edge="1" parent="1" source="UQZVPZunHJjyM63au8Hr-4" target="UQZVPZunHJjyM63au8Hr-4">
          <mxGeometry relative="1" as="geometry" />
        </mxCell>
      </root>
    </mxGraphModel>
  </diagram>
</mxfile>
